<svg width="41" height="41" viewBox="0 0 41 41" fill="none" xmlns="http://www.w3.org/2000/svg">
<path d="M23.6631 6.28616C23.8222 6.35438 23.9814 6.42251 24.1406 6.49054C24.4711 6.63182 24.8014 6.7735 25.1315 6.91545C25.8286 7.21474 26.5278 7.50878 27.227 7.80307C28.4946 8.33687 29.7607 8.8741 31.0263 9.41262C32.0184 9.83476 33.0114 10.255 34.0049 10.6741C34.2317 10.7698 34.4585 10.8656 34.6853 10.9614C34.7597 10.9928 34.834 11.0242 34.9106 11.0565C35.0604 11.1198 35.2102 11.1831 35.36 11.2464C35.8143 11.4382 36.2687 11.6296 36.7232 11.8207C37.0179 11.9447 37.3124 12.069 37.6069 12.1934C37.745 12.2517 37.8831 12.3098 38.0213 12.3677C40.3495 13.3442 40.3495 13.3442 40.7998 14.4391C41.0208 15.1466 41.0013 15.8383 40.7135 16.5233C40.3711 17.1639 39.9354 17.5421 39.2755 17.8374C39.2164 17.8646 39.1572 17.8917 39.0963 17.9196C38.3561 18.2561 37.6059 18.5696 36.856 18.8835C36.6982 18.9497 36.5405 19.016 36.3828 19.0824C36.056 19.2198 35.7292 19.357 35.4024 19.4942C34.7053 19.7868 34.0088 20.0808 33.3124 20.3749C33.0864 20.4704 32.8603 20.5658 32.6343 20.6612C31.6585 21.0732 30.6836 21.4868 29.709 21.9014C28.0459 22.6088 26.3819 23.3141 24.7158 24.0144C24.5081 24.1018 24.3006 24.1894 24.093 24.2771C23.7764 24.4108 23.4595 24.5437 23.1423 24.676C23.0277 24.7239 22.9133 24.7721 22.7989 24.8206C21.3145 25.4489 20.0276 25.5756 18.5041 24.9717C17.9595 24.744 17.4206 24.5035 16.8813 24.2636C16.1283 23.9298 15.3684 23.6121 14.6093 23.2928C14.4549 23.2277 14.3005 23.1627 14.1462 23.0976C13.8321 22.9652 13.5181 22.8329 13.204 22.7006C12.4377 22.3779 11.6717 22.0546 10.9056 21.7312C10.7934 21.6838 10.7934 21.6838 10.6788 21.6355C9.49799 21.1371 8.31802 20.6367 7.1389 20.1343C6.4168 19.8268 5.69381 19.5216 4.96985 19.2185C4.7268 19.1165 4.48377 19.0146 4.24074 18.9126C4.08573 18.8477 3.93066 18.7829 3.77552 18.7183C3.04095 18.4124 2.31049 18.1027 1.5975 17.7489C1.54565 17.7233 1.4938 17.6977 1.44038 17.6713C0.758233 17.3251 0.419979 16.9161 0.151086 16.2005C-0.0485886 15.4555 0.0218845 14.7633 0.351907 14.0691C1.01945 12.95 2.4086 12.5992 3.54846 12.1219C3.70876 12.0545 3.86904 11.9871 4.0293 11.9197C4.36216 11.7797 4.69508 11.6398 5.02803 11.5C5.72827 11.2059 6.42797 10.9106 7.12763 10.6151C7.35343 10.5198 7.57924 10.4244 7.80506 10.3291C8.78081 9.91716 9.75585 9.50355 10.7305 9.0889C12.0186 8.54086 13.3075 7.99451 14.5977 7.45136C15.2626 7.17138 15.9273 6.89096 16.59 6.60587C16.8669 6.48685 17.144 6.36845 17.4211 6.2501C17.5495 6.19507 17.6777 6.13975 17.8058 6.08409C20 5.13088 21.5206 5.35744 23.6631 6.28616Z" fill="white"/>
<path d="M7.68749 22.1016C7.80101 22.1388 7.91447 22.1762 8.02792 22.2137C8.12271 22.2449 8.12271 22.2449 8.21942 22.2767C8.50299 22.3745 8.77732 22.4907 9.05257 22.6096C9.1128 22.6353 9.17303 22.661 9.23509 22.6875C9.3652 22.7431 9.49525 22.7988 9.62526 22.8546C9.90773 22.9759 10.1905 23.0966 10.4732 23.2173C10.623 23.2812 10.7728 23.3452 10.9225 23.4092C11.9057 23.8293 12.891 24.2447 13.8763 24.6599C14.0265 24.7232 14.1768 24.7865 14.3271 24.8499C14.4009 24.881 14.4747 24.9121 14.5507 24.9441C14.9907 25.1296 15.4302 25.3161 15.8693 25.5034C16.1462 25.6215 16.4233 25.7392 16.7004 25.8569C16.8287 25.9115 16.9569 25.9662 17.0851 26.0212C18.1791 26.4905 19.2373 26.9153 20.4449 26.9313C20.5277 26.9348 20.5277 26.9348 20.6121 26.9383C22.0309 26.9546 23.3361 26.2958 24.604 25.7401C24.7955 25.6572 24.987 25.5744 25.1785 25.4918C25.5674 25.3239 25.9561 25.1555 26.3447 24.9869C27.165 24.6315 27.989 24.2849 28.8131 23.9384C29.1036 23.816 29.3941 23.6936 29.6846 23.5711C29.7884 23.5274 29.7884 23.5274 29.8943 23.4827C30.3684 23.2828 30.8418 23.0813 31.3149 22.8792C31.4403 22.8257 31.5656 22.7722 31.691 22.7187C31.9215 22.6204 32.152 22.5216 32.3823 22.4226C32.4833 22.3795 32.5843 22.3364 32.6853 22.2933C32.7723 22.256 32.8592 22.2187 32.9488 22.1803C33.1523 22.1016 33.1523 22.1016 33.3125 22.1016C33.3181 23.0274 33.3223 23.9533 33.3249 24.8791C33.3262 25.3091 33.3279 25.739 33.3306 26.169C33.3332 26.5844 33.3347 26.9997 33.3353 27.4151C33.3357 27.5732 33.3366 27.7312 33.3379 27.8892C33.3504 29.4761 33.3504 29.4761 33.0723 30.1094C33.0382 30.1895 33.0041 30.2696 32.969 30.3521C32.4836 31.2491 31.8795 31.8582 30.9902 32.3516C30.9367 32.3817 30.8833 32.4118 30.8282 32.4429C29.8724 32.978 28.8945 33.4147 27.8672 33.793C27.8087 33.8148 27.7503 33.8367 27.6901 33.8592C22.4738 35.7883 16.5118 35.4173 11.4815 33.1159C9.82676 32.3391 8.51673 31.5901 7.82856 29.8072C7.69077 29.4044 7.67655 29.0346 7.6784 28.6106C7.67838 28.5403 7.67837 28.47 7.67836 28.3975C7.67842 28.1653 7.67904 27.933 7.67967 27.7008C7.67982 27.5396 7.67993 27.3785 7.68001 27.2174C7.68032 26.7935 7.6811 26.3696 7.68199 25.9457C7.68281 25.5131 7.68317 25.0804 7.68358 24.6478C7.68444 23.7991 7.6858 22.9503 7.68749 22.1016Z" fill="white"/>
<path d="M37.6367 20.2598C37.6366 20.3478 37.6365 20.4359 37.6364 20.5267C37.6367 20.8538 37.6402 21.1809 37.6445 21.5081C37.646 21.6496 37.6466 21.7911 37.6463 21.9326C37.6461 22.1362 37.6489 22.3396 37.6523 22.5432C37.6516 22.6064 37.6509 22.6696 37.6501 22.7346C37.6504 22.9373 37.6504 22.9373 37.7168 23.2227C37.9422 23.4233 37.9422 23.4233 38.1972 23.543C38.6458 23.9446 38.8664 24.4105 38.9405 25.005C38.9657 25.6095 38.8162 26.1283 38.4225 26.5909C38.3485 26.6704 38.2738 26.7492 38.1972 26.8262C38.2888 27.0203 38.3686 27.1592 38.5126 27.3217C38.9839 27.9644 38.958 28.697 38.9537 29.4588C38.953 29.6444 38.9553 29.8298 38.9578 30.0154C38.958 30.1346 38.9579 30.2538 38.9577 30.3731C38.959 30.4553 38.959 30.4553 38.9604 30.5392C38.9547 30.938 38.8478 31.1641 38.5976 31.4707C38.2839 31.6798 38.0144 31.6568 37.6502 31.6578C37.5457 31.6586 37.5457 31.6586 37.4392 31.6594C37.2918 31.6602 37.1445 31.6606 36.9972 31.6605C36.7725 31.6609 36.548 31.6638 36.3234 31.6668C36.1801 31.6673 36.0368 31.6676 35.8934 31.6678C35.8266 31.6689 35.7598 31.6701 35.6909 31.6713C35.2612 31.6679 35.0141 31.5975 34.6738 31.3105C34.4743 30.9116 34.5687 30.2918 34.5657 29.848C34.5644 29.7031 34.5622 29.5582 34.5591 29.4133C34.5234 27.7198 34.5234 27.7198 35.1276 27.0867C35.1628 27.0536 35.1981 27.0205 35.2344 26.9863C35.0976 26.702 34.9347 26.4423 34.7636 26.1777C34.4845 25.7042 34.5473 25.1134 34.5937 24.584C34.7517 24.0398 35.0666 23.5987 35.5547 23.3027C35.7132 23.2631 35.7132 23.2631 35.875 23.2227C35.875 22.4827 35.875 21.7428 35.875 20.9805C36.1359 20.8616 36.3969 20.7426 36.6658 20.6201C36.7479 20.5825 36.8301 20.5449 36.9147 20.5061C36.9793 20.4768 37.044 20.4476 37.1106 20.4174C37.21 20.3721 37.21 20.3721 37.3113 20.3259C37.4765 20.2598 37.4765 20.2598 37.6367 20.2598Z" fill="white"/>
</svg>
