<svg width="35" height="35" viewBox="0 0 35 35" fill="none" xmlns="http://www.w3.org/2000/svg">
<g clip-path="url(#clip0_2262_493)">
<path d="M2.56097 3.0002C2.56097 1.34334 3.90411 0 5.56097 0C9.90613 0 14.2656 0 18.7016 0C20.3584 0 21.7016 1.34313 21.7016 2.99999C21.7016 13.5525 21.7016 24.1302 21.7016 35C19.8067 35 17.9118 35 15.9594 35C15.9594 32.3155 15.9594 29.6311 15.9594 26.8652C13.4554 26.8652 10.9514 26.8652 8.37152 26.8652C8.37152 29.5497 8.37152 32.2342 8.37152 35C6.45404 35 4.53656 35 2.56097 35C2.56097 24.423 2.56097 13.846 2.56097 3.0002ZM6.46515 4.92188C5.89884 4.92188 5.43207 5.38095 5.43207 5.94726C5.43207 6.21962 5.43207 6.49283 5.43207 6.76757C5.43207 7.33387 5.88346 7.79297 6.44977 7.79297C7.01608 7.79297 7.48285 7.33389 7.48285 6.76759C7.48285 6.49522 7.48285 6.22201 7.48285 5.94728C7.48285 5.38097 7.03146 4.92188 6.46515 4.92188ZM10.2588 4.92188C9.71141 4.92188 9.26019 5.36565 9.26019 5.91308C9.26019 6.20806 9.26019 6.504 9.26019 6.80175C9.26019 7.34918 9.69654 7.79297 10.244 7.79297C10.7914 7.79297 11.2426 7.34919 11.2426 6.80176C11.2426 6.50679 11.2426 6.21085 11.2426 5.91309C11.2426 5.36566 10.8063 4.92188 10.2588 4.92188ZM14.087 4.92188C13.5395 4.92188 13.0883 5.36565 13.0883 5.91308C13.0883 6.20806 13.0883 6.504 13.0883 6.80175C13.0883 7.34918 13.5247 7.79297 14.0721 7.79297C14.6195 7.79297 15.0707 7.34919 15.0707 6.80176C15.0707 6.50679 15.0707 6.21085 15.0707 5.91309C15.0707 5.36566 14.6344 4.92188 14.087 4.92188ZM17.8812 4.92188C17.3149 4.92188 16.8481 5.38095 16.8481 5.94726C16.8481 6.21962 16.8481 6.49283 16.8481 6.76757C16.8481 7.33387 17.2995 7.79297 17.8658 7.79297C18.4321 7.79297 18.8989 7.33389 18.8989 6.76759C18.8989 6.49522 18.8989 6.22201 18.8989 5.94728C18.8989 5.38097 18.4475 4.92188 17.8812 4.92188ZM6.46515 10.3223C5.89884 10.3223 5.43207 10.7813 5.43207 11.3476C5.43207 11.62 5.43207 11.8932 5.43207 12.168C5.43207 12.7343 5.88346 13.1934 6.44977 13.1934C7.01608 13.1934 7.48285 12.7343 7.48285 12.168C7.48285 11.8956 7.48285 11.6224 7.48285 11.3477C7.48285 10.7814 7.03146 10.3223 6.46515 10.3223ZM10.2588 10.3223C9.71141 10.3223 9.26019 10.766 9.26019 11.3135C9.26019 11.6084 9.26019 11.9044 9.26019 12.2021C9.26019 12.7496 9.69654 13.1934 10.244 13.1934C10.7914 13.1934 11.2426 12.7496 11.2426 12.2022C11.2426 11.9072 11.2426 11.6112 11.2426 11.3135C11.2426 10.7661 10.8063 10.3223 10.2588 10.3223ZM14.087 10.3223C13.5395 10.3223 13.0883 10.766 13.0883 11.3135C13.0883 11.6084 13.0883 11.9044 13.0883 12.2021C13.0883 12.7496 13.5247 13.1934 14.0721 13.1934C14.6195 13.1934 15.0707 12.7496 15.0707 12.2022C15.0707 11.9072 15.0707 11.6112 15.0707 11.3135C15.0707 10.7661 14.6344 10.3223 14.087 10.3223ZM17.8812 10.3223C17.3149 10.3223 16.8481 10.7813 16.8481 11.3476C16.8481 11.62 16.8481 11.8932 16.8481 12.168C16.8481 12.7343 17.2995 13.1934 17.8658 13.1934C18.4321 13.1934 18.8989 12.7343 18.8989 12.168C18.8989 11.8956 18.8989 11.6224 18.8989 11.3477C18.8989 10.7814 18.4475 10.3223 17.8812 10.3223ZM6.46515 15.6543C5.89884 15.6543 5.43207 16.1134 5.43207 16.6797C5.43207 16.952 5.43207 17.2253 5.43207 17.5C5.43207 18.0663 5.88346 18.5254 6.44977 18.5254C7.01608 18.5254 7.48285 18.0663 7.48285 17.5C7.48285 17.2276 7.48285 16.9544 7.48285 16.6797C7.48285 16.1134 7.03146 15.6543 6.46515 15.6543ZM10.2588 15.6543C9.71141 15.6543 9.26019 16.0981 9.26019 16.6455C9.26019 16.9405 9.26019 17.2364 9.26019 17.5342C9.26019 18.0816 9.69654 18.5254 10.244 18.5254C10.7914 18.5254 11.2426 18.0816 11.2426 17.5342C11.2426 17.2392 11.2426 16.9433 11.2426 16.6455C11.2426 16.0981 10.8063 15.6543 10.2588 15.6543ZM14.087 15.6543C13.5395 15.6543 13.0883 16.0981 13.0883 16.6455C13.0883 16.9405 13.0883 17.2364 13.0883 17.5342C13.0883 18.0816 13.5247 18.5254 14.0721 18.5254C14.6195 18.5254 15.0707 18.0816 15.0707 17.5342C15.0707 17.2392 15.0707 16.9433 15.0707 16.6455C15.0707 16.0981 14.6344 15.6543 14.087 15.6543ZM17.8812 15.6543C17.3149 15.6543 16.8481 16.1134 16.8481 16.6797C16.8481 16.952 16.8481 17.2253 16.8481 17.5C16.8481 18.0663 17.2995 18.5254 17.8658 18.5254C18.4321 18.5254 18.8989 18.0663 18.8989 17.5C18.8989 17.2276 18.8989 16.9544 18.8989 16.6797C18.8989 16.1134 18.4475 15.6543 17.8812 15.6543ZM6.46515 21.0547C5.89884 21.0547 5.43207 21.5138 5.43207 22.0801C5.43207 22.3524 5.43207 22.6256 5.43207 22.9004C5.43207 23.4667 5.88346 23.9258 6.44977 23.9258C7.01608 23.9258 7.48285 23.4667 7.48285 22.9004C7.48285 22.628 7.48285 22.3548 7.48285 22.0801C7.48285 21.5138 7.03146 21.0547 6.46515 21.0547ZM10.2588 21.0547C9.71141 21.0547 9.26019 21.4985 9.26019 22.0459C9.26019 22.3409 9.26019 22.6368 9.26019 22.9346C9.26019 23.482 9.69654 23.9258 10.244 23.9258C10.7914 23.9258 11.2426 23.482 11.2426 22.9346C11.2426 22.6396 11.2426 22.3437 11.2426 22.0459C11.2426 21.4985 10.8063 21.0547 10.2588 21.0547ZM14.087 21.0547C13.5395 21.0547 13.0883 21.4985 13.0883 22.0459C13.0883 22.3409 13.0883 22.6368 13.0883 22.9346C13.0883 23.482 13.5247 23.9258 14.0721 23.9258C14.6195 23.9258 15.0707 23.482 15.0707 22.9346C15.0707 22.6396 15.0707 22.3437 15.0707 22.0459C15.0707 21.4985 14.6344 21.0547 14.087 21.0547ZM17.8812 21.0547C17.3149 21.0547 16.8481 21.5138 16.8481 22.0801C16.8481 22.3524 16.8481 22.6256 16.8481 22.9004C16.8481 23.4667 17.2995 23.9258 17.8658 23.9258C18.4321 23.9258 18.8989 23.4667 18.8989 22.9004C18.8989 22.628 18.8989 22.3548 18.8989 22.0801C18.8989 21.5138 18.4475 21.0547 17.8812 21.0547Z" fill="white"/>
<path d="M23.8574 11.4084C23.8574 9.75152 25.2005 8.4082 26.8574 8.4082C27.657 8.4082 28.459 8.4082 29.2656 8.4082C30.9224 8.4082 32.2656 9.75133 32.2656 11.4082C32.2656 19.1867 32.2656 26.989 32.2656 35C29.4909 35 26.7162 35 23.8574 35C23.8574 27.1984 23.8574 19.3968 23.8574 11.4084ZM28.1373 12.2363C27.5899 12.2363 27.1387 12.6801 27.1387 13.2275C27.1387 13.5225 27.1387 13.8184 27.1387 14.1162C27.1387 14.6636 27.575 15.1074 28.1224 15.1074C28.6699 15.1074 29.1211 14.6636 29.1211 14.1162C29.1211 13.8212 29.1211 13.5253 29.1211 13.2275C29.1211 12.6801 28.6847 12.2363 28.1373 12.2363ZM28.1373 17.5684C27.5899 17.5684 27.1387 18.0121 27.1387 18.5596C27.1387 18.8545 27.1387 19.1505 27.1387 19.4482C27.1387 19.9957 27.575 20.4395 28.1224 20.4395C28.6699 20.4395 29.1211 19.9957 29.1211 19.4482C29.1211 19.1533 29.1211 18.8573 29.1211 18.5596C29.1211 18.0121 28.6847 17.5684 28.1373 17.5684ZM28.1373 22.9688C27.5899 22.9688 27.1387 23.4125 27.1387 23.96C27.1387 24.2549 27.1387 24.5509 27.1387 24.8486C27.1387 25.3961 27.575 25.8398 28.1224 25.8398C28.6699 25.8398 29.1211 25.3961 29.1211 24.8486C29.1211 24.5537 29.1211 24.2577 29.1211 23.96C29.1211 23.4125 28.6847 22.9688 28.1373 22.9688ZM28.1373 28.3008C27.5899 28.3008 27.1387 28.7446 27.1387 29.292C27.1387 29.587 27.1387 29.8829 27.1387 30.1807C27.1387 30.7281 27.575 31.1719 28.1224 31.1719C28.6699 31.1719 29.1211 30.7281 29.1211 30.1807C29.1211 29.8857 29.1211 29.5898 29.1211 29.292C29.1211 28.7446 28.6847 28.3008 28.1373 28.3008Z" fill="white"/>
<path d="M10.2439 28.1708C11.3707 28.1708 12.4976 28.1708 13.6585 28.1708C13.6585 30.4244 13.6585 32.6781 13.6585 35C12.5317 35 11.4049 35 10.2439 35C10.2439 32.7464 10.2439 30.4927 10.2439 28.1708Z" fill="white"/>
</g>
<defs>
<clipPath id="clip0_2262_493">
<rect width="35" height="35" fill="white"/>
</clipPath>
</defs>
</svg>
