<svg width="39" height="39" viewBox="0 0 39 39" fill="none" xmlns="http://www.w3.org/2000/svg">
<g clip-path="url(#clip0_2262_490)">
<path d="M19.8046 3.57274e-05C20.1695 0.1833 20.4946 0.42417 20.8225 0.665945C21.3888 1.07897 21.9892 1.38163 22.623 1.67582C22.6785 1.70187 22.734 1.72793 22.7912 1.75478C25.1042 2.82748 27.6456 3.18954 30.164 2.81839C30.2145 2.81104 30.2649 2.80369 30.3169 2.79612C31.375 2.63566 32.3879 2.31702 33.3775 1.91385C33.7562 1.76564 34.0256 1.67984 34.4296 1.75199C34.6977 1.95732 34.8277 2.10868 34.8867 2.43754C34.8934 2.55379 34.8964 2.67029 34.8965 2.78674C34.8967 2.85688 34.897 2.92702 34.8972 2.99928C34.8971 3.07607 34.897 3.15285 34.8969 3.23197C34.897 3.31375 34.8972 3.39554 34.8974 3.47981C34.8979 3.75481 34.8978 4.0298 34.8977 4.30481C34.898 4.50161 34.8982 4.69842 34.8985 4.89522C34.8991 5.37498 34.8993 5.85474 34.8994 6.33451C34.8994 6.72468 34.8996 7.11486 34.8998 7.50504C34.9005 8.6118 34.9008 9.71855 34.9008 10.8253C34.9008 10.9148 34.9008 10.9148 34.9008 11.0061C34.9008 11.0659 34.9008 11.1256 34.9008 11.1872C34.9007 12.1545 34.9015 13.1218 34.9025 14.0891C34.9036 15.0829 34.9042 16.0766 34.9041 17.0704C34.9041 17.6281 34.9043 18.1858 34.9051 18.7435C34.9059 19.2683 34.9058 19.7932 34.9053 20.318C34.9052 20.5104 34.9054 20.7028 34.9058 20.8952C34.9064 21.1584 34.9061 21.4216 34.9055 21.6848C34.9059 21.7604 34.9063 21.836 34.9067 21.9138C34.8922 24.8769 32.4909 27.6721 30.6548 29.8072C30.5409 29.9402 30.4281 30.0741 30.3155 30.2081C29.9136 30.6846 29.5059 31.1429 29.0556 31.5751C28.9012 31.7313 28.7587 31.89 28.6159 32.0565C28.3495 32.3636 28.0637 32.6409 27.7646 32.9158C27.6572 33.0154 27.5498 33.115 27.4424 33.2145C27.3883 33.2645 27.3343 33.3144 27.2786 33.3658C27.1227 33.5105 26.9678 33.6563 26.8133 33.8025C26.2716 34.3146 25.7215 34.8044 25.1367 35.2676C25.049 35.3384 24.9614 35.4094 24.8739 35.4804C23.6789 36.4478 22.4473 37.3382 21.1581 38.1771C21.0267 38.2627 20.8956 38.3488 20.7649 38.4355C20.6124 38.5364 20.4588 38.6353 20.3045 38.7334C20.2229 38.7861 20.1413 38.8387 20.0573 38.8929C19.7257 39.0335 19.4733 39.0733 19.1191 39C18.8367 38.8735 18.5885 38.708 18.3336 38.5335C18.2612 38.4856 18.1887 38.4377 18.1141 38.3884C17.8892 38.2386 17.6661 38.0865 17.4433 37.9336C17.374 37.8865 17.3048 37.8393 17.2334 37.7907C16.4462 37.2535 15.6766 36.6974 14.9296 36.1055C14.8654 36.0551 14.8012 36.0048 14.735 35.9529C13.994 35.3669 13.2744 34.7524 12.5683 34.125C12.5064 34.0702 12.4446 34.0155 12.3809 33.959C12.0478 33.6619 11.7236 33.3607 11.4115 33.0418C11.2757 32.9085 11.1349 32.7856 10.9898 32.6626C10.6614 32.3769 10.3644 32.0686 10.0689 31.7494C9.98967 31.6644 9.98967 31.6644 9.90882 31.5777C9.80297 31.464 9.69727 31.3502 9.59173 31.2363C9.46293 31.0972 9.33368 30.9586 9.20425 30.8202C8.75568 30.3383 8.33318 29.8401 7.92182 29.3262C7.85067 29.2392 7.77946 29.1522 7.70818 29.0653C6.56183 27.6604 5.49576 26.1533 4.71308 24.5131C4.68611 24.4566 4.65914 24.4002 4.63135 24.342C4.23475 23.4782 4.10171 22.666 4.10253 21.7229C4.1023 21.6407 4.10208 21.5586 4.10184 21.4739C4.10118 21.1989 4.10107 20.9239 4.10095 20.6489C4.1006 20.4515 4.10022 20.2542 4.09981 20.0569C4.09877 19.5212 4.09831 18.9854 4.09798 18.4497C4.09777 18.1151 4.09744 17.7805 4.0971 17.4459C4.09617 16.5189 4.09539 15.5919 4.09513 14.6649C4.09511 14.576 4.09511 14.576 4.09508 14.4854C4.09506 14.426 4.09505 14.3666 4.09503 14.3054C4.095 14.185 4.09496 14.0647 4.09493 13.9443C4.09491 13.8846 4.09489 13.8249 4.09488 13.7634C4.09458 12.7954 4.09324 11.8274 4.09147 10.8594C4.08967 9.86499 4.08872 8.87055 4.08863 7.8761C4.08856 7.318 4.08812 6.75989 4.08674 6.20179C4.08544 5.67711 4.08532 5.15244 4.08599 4.62776C4.08604 4.43514 4.08571 4.24251 4.08496 4.04989C4.084 3.78708 4.08444 3.52431 4.08523 3.2615C4.08462 3.18517 4.08401 3.10884 4.08337 3.0302C4.08645 2.59708 4.12719 2.28444 4.34174 1.90433C4.62727 1.71398 4.84918 1.71177 5.17963 1.75199C5.40055 1.815 5.60714 1.90319 5.81757 1.99479C9.08839 3.33544 12.7048 3.24418 15.9618 1.90035C17.0236 1.44125 17.9599 0.847793 18.8989 0.176183C19.1919 -0.0272239 19.4559 -0.0685675 19.8046 3.57274e-05ZM18.8906 5.17972C16.4961 6.78357 13.8408 7.44813 10.9947 6.89463C10.4217 6.76892 9.86953 6.57224 9.31821 6.37437C9.23131 6.34462 9.14441 6.31487 9.05488 6.28421C8.97927 6.25672 8.90366 6.22923 8.82577 6.2009C8.5325 6.15935 8.39565 6.24002 8.15034 6.39847C7.96065 6.683 7.97586 6.90387 7.9766 7.2333C7.97614 7.29578 7.97569 7.35826 7.97523 7.42263C7.9739 7.63277 7.97367 7.84289 7.97344 8.05304C7.97274 8.20343 7.97197 8.35383 7.97115 8.50423C7.96915 8.91363 7.96817 9.32303 7.96749 9.73243C7.96705 9.98851 7.96642 10.2446 7.96574 10.5007C7.96366 11.3027 7.96219 12.1047 7.9616 12.9068C7.96092 13.8309 7.95825 14.755 7.95383 15.6792C7.95053 16.3943 7.949 17.1094 7.94879 17.8245C7.94864 18.2511 7.94775 18.6777 7.94501 19.1043C7.94249 19.5066 7.94218 19.9087 7.94351 20.3109C7.94363 20.4577 7.94298 20.6045 7.94146 20.7512C7.92931 22.0005 8.20233 22.967 8.85493 24.0418C8.89086 24.1023 8.9268 24.1628 8.96383 24.2251C9.29795 24.7797 9.66229 25.3076 10.0546 25.8223C10.1041 25.8875 10.1041 25.8875 10.1545 25.9539C10.8099 26.813 11.4906 27.6675 12.2698 28.4181C12.4084 28.5569 12.5353 28.7002 12.662 28.8498C12.9432 29.1733 13.2449 29.4677 13.5585 29.7594C13.6147 29.8119 13.6709 29.8644 13.7288 29.9185C14.5765 30.7061 15.4467 31.4559 16.3769 32.1446C16.4527 32.2011 16.4527 32.2011 16.53 32.2587C17.1803 32.7422 17.8416 33.2093 18.5192 33.6537C18.5778 33.6935 18.6364 33.7332 18.6968 33.7742C19.0104 33.9756 19.2713 34.1154 19.6508 34.087C19.9646 34.0092 20.216 33.8334 20.4807 33.6537C20.5432 33.6126 20.6058 33.5715 20.6703 33.5292C20.8656 33.3997 21.059 33.2678 21.2519 33.1348C21.3116 33.0937 21.3712 33.0526 21.4327 33.0103C22.2673 32.4304 23.0629 31.8067 23.8417 31.1543C23.8869 31.1168 23.932 31.0792 23.9785 31.0405C25.1055 30.0997 26.1586 29.0944 27.1489 28.0105C27.2511 27.899 27.3546 27.7885 27.4584 27.6784C28 27.0964 28.4706 26.4588 28.9453 25.8223C28.9973 25.7533 28.9973 25.7533 29.0504 25.683C29.4477 25.1553 29.8075 24.6097 30.145 24.0418C30.1948 23.9598 30.1948 23.9598 30.2456 23.8761C30.8844 22.7739 31.0695 21.8097 31.0574 20.5521C31.0577 20.4017 31.0581 20.2513 31.0587 20.1009C31.0598 19.6963 31.0581 19.2918 31.0558 18.8872C31.0537 18.4625 31.0542 18.0379 31.0542 17.6132C31.054 16.9013 31.0521 16.1894 31.0489 15.4775C31.0453 14.6546 31.0441 13.8317 31.0443 13.0088C31.0445 12.131 31.0429 11.2532 31.0408 10.3754C31.0403 10.1229 31.0401 9.87035 31.04 9.6178C31.0398 9.22158 31.0384 8.82539 31.0361 8.42918C31.0354 8.28378 31.0352 8.13839 31.0353 7.99299C31.0354 7.7947 31.0341 7.59646 31.0325 7.39818C31.0328 7.34055 31.0332 7.28292 31.0335 7.22354C31.0288 6.88469 30.9841 6.6668 30.7734 6.39847C30.5077 6.22132 30.3736 6.23419 30.0643 6.27588C29.8327 6.32832 29.6268 6.40845 29.407 6.49845C27.5309 7.26176 25.3231 7.31461 23.3847 6.77933C23.3335 6.76547 23.2822 6.75162 23.2294 6.73734C22.1702 6.4417 21.2023 5.94061 20.3036 5.31392C20.2395 5.26963 20.1754 5.22535 20.1093 5.17972C20.0167 5.11448 20.0167 5.11448 19.9222 5.04791C19.5205 4.84737 19.2436 4.93261 18.8906 5.17972Z" fill="white"/>
<path d="M19.564 7.82567C19.8058 7.95145 20.0441 8.08189 20.2813 8.21548C22.8425 9.62637 25.6594 9.87742 28.501 9.18646C28.5766 9.16811 28.6522 9.14976 28.73 9.13086C28.7871 9.11695 28.8441 9.10305 28.9029 9.08873C28.9162 10.7218 28.9262 12.3549 28.9323 13.9881C28.9353 14.7465 28.9392 15.5048 28.9457 16.2632C28.9514 16.9246 28.9551 17.586 28.9563 18.2474C28.9571 18.5973 28.9588 18.9471 28.9629 19.297C28.9668 19.6271 28.968 19.9571 28.9671 20.2872C28.9673 20.4076 28.9684 20.528 28.9706 20.6483C28.9856 21.5177 28.8016 22.1117 28.3355 22.8552C28.2926 22.9243 28.2497 22.9934 28.2055 23.0646C28.0968 23.2351 27.9829 23.4007 27.8657 23.5658C27.8236 23.6258 27.7815 23.6859 27.7382 23.7477C27.1356 24.5973 26.4875 25.4104 25.7538 26.1582C25.6105 26.3059 25.4729 26.4553 25.3363 26.6085C25.062 26.9127 24.7707 27.1982 24.4747 27.4826C24.4241 27.5316 24.3736 27.5807 24.3216 27.6312C23.9927 27.9482 23.6526 28.2477 23.3 28.5399C23.2223 28.6057 23.1448 28.6716 23.0673 28.7376C22.4586 29.2512 21.8286 29.7282 21.1723 30.1836C21.1073 30.2289 21.0424 30.2742 20.9755 30.3209C20.7657 30.4663 20.5548 30.6098 20.3434 30.753C20.2763 30.7993 20.2093 30.8457 20.1403 30.8935C20.0768 30.9359 20.0134 30.9782 19.948 31.0218C19.8917 31.06 19.8354 31.0982 19.7774 31.1375C19.5693 31.23 19.4725 31.2098 19.2573 31.1425C18.1931 30.5757 17.1905 29.8261 16.2755 29.0573C16.0733 28.8886 15.8667 28.7267 15.658 28.5656C15.2966 28.2817 14.9709 27.9726 14.6473 27.6495C14.4387 27.4466 14.2281 27.2457 14.0168 27.0454C13.46 26.5159 12.9258 25.9883 12.4487 25.3893C12.3717 25.2962 12.2946 25.2032 12.2174 25.1103C11.3826 24.0994 10.6796 23.0663 10.1082 21.8964C10.0848 21.8511 10.0614 21.8059 10.0373 21.7594C10.0305 21.5929 10.0281 21.4284 10.0288 21.2619C10.0287 21.21 10.0286 21.1582 10.0286 21.1047C10.0285 20.93 10.0289 20.7554 10.0292 20.5807C10.0293 20.4558 10.0293 20.331 10.0292 20.2061C10.0292 19.8664 10.0296 19.5267 10.0301 19.1869C10.0305 18.8322 10.0306 18.4774 10.0307 18.1226C10.0309 17.4505 10.0315 16.7784 10.0322 16.1062C10.033 15.3412 10.0334 14.5761 10.0337 13.8111C10.0345 12.2369 10.0357 10.6628 10.0373 9.08873C10.1174 9.10711 10.1975 9.1255 10.28 9.14444C10.3876 9.16904 10.4952 9.19363 10.6027 9.21821C10.6552 9.23028 10.7077 9.24234 10.7618 9.25477C13.4708 9.87298 16.3389 9.62096 18.7481 8.1902C18.916 8.08334 19.0802 7.97352 19.2413 7.85724C19.3992 7.78742 19.3992 7.78742 19.564 7.82567Z" fill="white"/>
</g>
<defs>
<clipPath id="clip0_2262_490">
<rect width="39" height="39" fill="white"/>
</clipPath>
</defs>
</svg>
