<svg width="41" height="41" viewBox="0 0 41 41" fill="none" xmlns="http://www.w3.org/2000/svg">
<path d="M18.6482 3.81875C18.7149 3.8183 18.7816 3.81785 18.8504 3.81738C19.4274 3.8243 19.4274 3.8243 19.6992 4.00393C19.9042 4.29842 19.8809 4.61143 19.8776 4.95603C19.8776 5.01934 19.8776 5.08266 19.8776 5.14789C19.8775 5.35674 19.8763 5.56556 19.875 5.77441C19.8747 5.91938 19.8745 6.06434 19.8743 6.20931C19.8737 6.59056 19.8721 6.97181 19.8704 7.35305C19.8687 7.74221 19.868 8.13137 19.8672 8.52053C19.8655 9.28388 19.8627 10.0472 19.8594 10.8106C19.8119 10.8215 19.7645 10.8325 19.7156 10.8438C19.497 10.8946 19.2786 10.9458 19.0602 10.997C18.9855 11.0143 18.9109 11.0315 18.834 11.0493C16.3442 11.6354 14.1781 13.1142 12.8125 15.2949C12.272 16.1839 11.8941 17.0981 11.6113 18.0977C11.5841 18.1879 11.5568 18.2781 11.5287 18.3711C10.9121 20.8092 11.4829 23.4351 12.7302 25.5697C14.0576 27.7541 16.2608 29.3431 18.7383 29.9492C18.9322 29.9918 19.1262 30.0336 19.3204 30.0749C19.4213 30.0964 19.5222 30.1179 19.6262 30.14C19.7032 30.1564 19.7801 30.1727 19.8594 30.1895C19.8631 31.0297 19.8659 31.8698 19.8677 32.71C19.8685 33.1001 19.8696 33.4903 19.8715 33.8804C19.8732 34.2568 19.8741 34.6332 19.8746 35.0097C19.8749 35.1534 19.8754 35.297 19.8763 35.4407C19.8775 35.6418 19.8776 35.8429 19.8776 36.044C19.8781 36.1035 19.8787 36.163 19.8793 36.2243C19.8781 36.5193 19.8724 36.7503 19.6992 36.9961C19.3551 37.1995 18.9914 37.184 18.6031 37.1813C18.539 37.181 18.4748 37.1806 18.4087 37.1803C17.5881 37.1647 16.9888 36.9681 16.371 36.4105C15.9403 35.9357 15.714 35.5472 15.5702 34.9291C15.554 34.8637 15.5378 34.7983 15.5212 34.7309C15.4709 34.5254 15.4227 34.3195 15.375 34.1133C15.3589 34.0449 15.3429 33.9766 15.3264 33.9061C15.0547 32.7435 15.0547 32.7435 15.0547 32.4317C14.9498 32.4192 14.9498 32.4192 14.8427 32.4064C14.5624 32.3492 14.372 32.2505 14.1219 32.1148C13.8304 31.99 13.6849 31.9317 13.3761 32.0158C13.1309 32.1479 12.9086 32.2943 12.6824 32.4567C12.6056 32.5079 12.5288 32.5592 12.4496 32.612C12.2968 32.714 12.1447 32.8172 11.9935 32.9215C11.124 33.512 10.3929 33.8686 9.32284 33.6757C8.44818 33.449 7.85901 32.7963 7.23205 32.1764C7.15809 32.1058 7.08413 32.0351 7.00792 31.9623C6.46132 31.422 6.02624 30.8633 5.95549 30.0741C5.95518 29.964 5.95692 29.854 5.96081 29.744C5.95993 29.6898 5.95905 29.6356 5.95815 29.5797C5.9701 28.7325 6.44068 28.0469 6.89172 27.3617C6.99112 27.2086 7.09048 27.0554 7.18982 26.9022C7.23349 26.8356 7.27716 26.769 7.32216 26.7004C7.59068 26.3456 7.59068 26.3456 7.66685 25.9369C7.64393 25.8819 7.62102 25.8269 7.5974 25.7702C7.57356 25.7089 7.54972 25.6475 7.52515 25.5844C7.49944 25.5185 7.47374 25.4526 7.44726 25.3848C7.40086 25.2367 7.35578 25.0882 7.31213 24.9394C7.292 24.8715 7.27187 24.8037 7.25113 24.7338C7.23658 24.6844 7.22202 24.635 7.20702 24.584C7.06442 24.5721 7.06442 24.5721 6.91893 24.5599C6.38012 24.4995 5.85718 24.3732 5.33019 24.2487C5.22939 24.2263 5.12859 24.204 5.02474 24.181C4.21307 23.9892 3.48878 23.7389 3.00292 23.0225C2.92736 22.9147 2.92736 22.9147 2.85027 22.8048C2.57911 22.3316 2.53704 21.9118 2.53559 21.3793C2.53506 21.3106 2.53453 21.2419 2.53398 21.1711C2.53317 21.0262 2.53279 20.8813 2.53282 20.7364C2.53247 20.5165 2.52956 20.2968 2.52652 20.077C2.52605 19.9355 2.52573 19.7941 2.52558 19.6526C2.52443 19.5878 2.52328 19.523 2.52209 19.4562C2.52793 18.716 2.85883 18.0702 3.36327 17.5371C3.95715 17.0778 4.6082 16.9114 5.33019 16.7514C5.4313 16.7275 5.53241 16.7036 5.63659 16.679C6.15983 16.5579 6.67175 16.4608 7.20702 16.416C7.22158 16.3666 7.23613 16.3172 7.25113 16.2662C7.27126 16.1984 7.29139 16.1306 7.31213 16.0607C7.33164 15.9947 7.35115 15.9288 7.37125 15.8608C7.44726 15.6153 7.44726 15.6153 7.52761 15.4592C7.66394 15.165 7.72079 14.9869 7.60814 14.6745C7.47214 14.4301 7.32429 14.1999 7.16699 13.9687C7.11579 13.8894 7.06459 13.8102 7.01183 13.7286C6.86514 13.5021 6.71611 13.2773 6.5664 13.0528C6.17861 12.4682 5.97627 11.9973 5.96581 11.281C5.96251 11.2263 5.95921 11.1716 5.9558 11.1152C5.94422 10.3274 6.38277 9.68014 6.90798 9.12674C7.02579 9.00701 7.14496 8.889 7.26548 8.772C7.38754 8.65313 7.50706 8.53207 7.6265 8.41057C8.28379 7.7537 8.94639 7.28612 9.90466 7.26712C9.96608 7.26505 10.0275 7.26299 10.0908 7.26086C10.8441 7.34358 11.4266 7.67619 12.0568 8.07791C12.2893 8.22375 12.5221 8.36921 12.7557 8.51335C12.8952 8.6002 13.0333 8.68923 13.1696 8.78092C13.5531 9.02633 13.5531 9.02633 14.0005 8.98285C14.094 8.93361 14.1876 8.88437 14.2839 8.83364C14.8012 8.56839 14.8012 8.56839 15.0547 8.56839C15.0636 8.51086 15.0725 8.45334 15.0816 8.39407C15.179 7.78509 15.3022 7.18631 15.4451 6.58645C15.4646 6.50067 15.4841 6.41489 15.5042 6.32651C15.7212 5.41227 16.0419 4.70497 16.8602 4.19287C17.4441 3.86929 17.9907 3.82309 18.6482 3.81875Z" fill="white"/>
<path d="M19.8593 12.0117C19.8593 17.614 19.8593 23.2162 19.8593 28.9883C18.7231 28.7989 18.7231 28.7989 18.1927 28.6179C18.1319 28.5973 18.071 28.5766 18.0083 28.5553C17.052 28.2174 16.218 27.7383 15.4551 27.0664C15.3567 26.9853 15.3567 26.9853 15.2564 26.9025C13.6119 25.5053 12.6896 23.4272 12.4922 21.3008C12.3278 18.7897 13.0505 16.5257 14.7093 14.6093C15.9488 13.2808 17.9865 12.0117 19.8593 12.0117Z" fill="white"/>
<path d="M32.6647 8.44856C33.1672 8.90842 33.4279 9.47036 33.4752 10.1496C33.466 10.8112 33.2327 11.3536 32.7782 11.8325C32.4891 12.0967 32.2466 12.2116 31.8711 12.332C31.8718 12.3915 31.8725 12.451 31.8732 12.5123C31.8797 13.0731 31.8845 13.6339 31.8877 14.1948C31.8894 14.4831 31.8916 14.7714 31.8953 15.0598C31.8987 15.3381 31.9007 15.6164 31.9015 15.8947C31.9024 16.0524 31.9049 16.2102 31.9074 16.3679C31.9074 16.464 31.9074 16.5602 31.9075 16.6593C31.9082 16.7439 31.9089 16.8286 31.9096 16.9158C31.8614 17.1922 31.7662 17.2834 31.5508 17.457C31.3475 17.5587 31.2069 17.547 30.9792 17.5467C30.8485 17.5469 30.8485 17.5469 30.7151 17.5471C30.6191 17.5468 30.5231 17.5465 30.4242 17.5462C30.3234 17.5462 30.2226 17.5462 30.1188 17.5462C29.842 17.5463 29.5652 17.5458 29.2884 17.5452C28.9993 17.5447 28.7103 17.5447 28.4212 17.5446C27.8735 17.5443 27.3259 17.5437 26.7783 17.5429C26.1549 17.542 25.5315 17.5415 24.9081 17.5411C23.6256 17.5403 22.3431 17.5389 21.0605 17.5371C21.0605 17.0879 21.0605 16.6386 21.0605 16.1758C24.1788 16.1758 27.297 16.1758 30.5098 16.1758C30.4833 14.9073 30.4569 13.6389 30.4297 12.332C30.2183 12.2263 30.0069 12.1206 29.7891 12.0117C29.2897 11.591 29.0289 11.1117 28.9604 10.469C28.9295 9.73665 29.0396 9.19423 29.5382 8.64343C30.4326 7.80821 31.6854 7.67755 32.6647 8.44856Z" fill="white"/>
<path d="M21.0605 23.4629C22.4019 23.4592 23.7432 23.4564 25.0846 23.4546C25.7074 23.4538 26.3302 23.4527 26.953 23.4508C27.4958 23.4492 28.0386 23.4482 28.5814 23.4479C28.8688 23.4476 29.1562 23.4472 29.4437 23.446C29.7644 23.4447 30.0852 23.4447 30.406 23.4447C30.5014 23.4442 30.5969 23.4436 30.6952 23.443C30.7826 23.4432 30.8699 23.4434 30.9599 23.4437C31.0358 23.4435 31.1117 23.4434 31.1899 23.4432C31.405 23.4643 31.5307 23.505 31.7109 23.6231C31.896 23.9007 31.8906 24.0045 31.8893 24.3316C31.8893 24.4759 31.8893 24.4759 31.8892 24.6231C31.8884 24.7269 31.8876 24.8308 31.8867 24.9378C31.8864 25.0452 31.8862 25.1526 31.886 25.2599C31.8854 25.5423 31.8839 25.8247 31.8821 26.1071C31.8805 26.3953 31.8797 26.6836 31.8789 26.9718C31.8772 27.5372 31.8745 28.1026 31.8711 28.668C31.984 28.7036 31.984 28.7036 32.0992 28.7399C32.6049 28.9167 33.0262 29.3219 33.2775 29.7941C33.5163 30.4331 33.5127 31.2087 33.2324 31.8311C32.9501 32.3104 32.5023 32.7627 31.9699 32.9569C31.2782 33.0935 30.5775 33.0842 29.9614 32.7213C29.524 32.3927 29.0982 31.9421 28.9883 31.3907C28.9182 30.565 28.9607 29.9406 29.4838 29.2886C29.7711 28.9502 29.9827 28.8915 30.4297 28.668C30.4561 27.3996 30.4825 26.1311 30.5098 24.8242C27.3915 24.8242 24.2733 24.8242 21.0605 24.8242C21.0605 24.375 21.0605 23.9258 21.0605 23.4629Z" fill="white"/>
<path d="M37.628 18.6717C38.0566 19.0062 38.2934 19.4241 38.4375 19.9395C38.5002 20.6085 38.5222 21.2226 38.1172 21.7813C38.061 21.8655 38.0049 21.9498 37.947 22.0365C37.5817 22.4531 36.9804 22.6958 36.4377 22.7613C35.8251 22.7831 35.2964 22.5966 34.7689 22.2918C34.5026 22.0027 34.1133 21.549 34.1133 21.1407C29.8059 21.1407 25.4985 21.1407 21.0605 21.1407C21.0605 20.7179 21.0605 20.295 21.0605 19.8594C25.3679 19.8594 29.6754 19.8594 34.1133 19.8594C34.1661 19.7009 34.219 19.5423 34.2734 19.3789C34.561 18.8268 35.0272 18.5309 35.5947 18.3079C36.334 18.1759 36.9775 18.2698 37.628 18.6717Z" fill="white"/>
<path d="M26.8312 5.37841C27.3466 5.86684 27.6213 6.44693 27.652 7.15702C27.627 7.89553 27.3546 8.33418 26.8621 8.87557C26.6212 9.08843 26.3578 9.2891 26.0254 9.2891C26.0261 9.33354 26.0268 9.37797 26.0275 9.42375C26.0346 9.88619 26.0395 10.3486 26.043 10.8111C26.0446 10.9837 26.0468 11.1563 26.0496 11.3289C26.0534 11.5769 26.0553 11.825 26.0567 12.0731C26.0592 12.1888 26.0592 12.1888 26.0617 12.3069C26.0617 12.379 26.0617 12.4512 26.0618 12.5255C26.0625 12.5888 26.0632 12.6521 26.0639 12.7173C26.0088 12.968 25.9091 13.0606 25.7051 13.2129C25.4902 13.2514 25.4902 13.2514 25.2424 13.2493C25.1029 13.2493 25.1029 13.2493 24.9607 13.2492C24.8607 13.2476 24.7608 13.2459 24.6578 13.2442C24.5552 13.2438 24.4525 13.2433 24.3468 13.2428C24.0745 13.2416 23.8023 13.2385 23.5301 13.2349C23.252 13.2316 22.974 13.2302 22.6959 13.2286C22.1508 13.2251 21.6057 13.2195 21.0605 13.2129C21.0605 12.7637 21.0605 12.3145 21.0605 11.8516C22.2497 11.8516 23.4389 11.8516 24.6641 11.8516C24.6641 11.437 24.6641 11.0225 24.6641 10.5954C24.6657 10.4652 24.6674 10.3351 24.6691 10.201C24.6838 9.62613 24.6838 9.62613 24.4468 9.12867C24.2824 9.02888 24.1222 8.95822 23.9434 8.88871C23.4479 8.45725 23.2004 7.97947 23.1176 7.33188C23.0855 6.69124 23.2853 6.12952 23.6731 5.62052C24.493 4.7403 25.8832 4.66398 26.8312 5.37841Z" fill="white"/>
<path d="M21.0605 27.7871C21.6606 27.7798 22.2606 27.7739 22.8607 27.7705C23.1393 27.7688 23.4179 27.7665 23.6966 27.7629C24.017 27.7587 24.3374 27.7572 24.6578 27.7558C24.7577 27.7541 24.8577 27.7525 24.9607 27.7508C25.0536 27.7507 25.1466 27.7507 25.2424 27.7507C25.3651 27.7496 25.3651 27.7496 25.4902 27.7485C25.7667 27.7981 25.8599 27.8832 26.0254 28.1074C26.0639 28.2827 26.0639 28.2827 26.0618 28.4745C26.0617 28.5466 26.0617 28.6188 26.0617 28.6931C26.06 28.7702 26.0584 28.8474 26.0567 28.9269C26.0562 29.0064 26.0558 29.086 26.0553 29.1679C26.0535 29.4217 26.0495 29.6754 26.0454 29.9291C26.0438 30.1013 26.0423 30.2734 26.041 30.4456C26.0375 30.8674 26.0321 31.2891 26.0254 31.7109C26.101 31.7348 26.1767 31.7587 26.2546 31.7834C26.7895 31.97 27.2007 32.4209 27.4668 32.9121C27.7278 33.6038 27.6795 34.1895 27.4067 34.8677C27.1073 35.4853 26.6652 35.8011 26.0254 36.0351C25.4429 36.1869 24.8523 36.1214 24.31 35.8624C23.7616 35.5312 23.4605 35.0909 23.1926 34.5186C23.0523 33.831 23.1301 33.2146 23.4629 32.5917C23.7932 32.1658 24.0966 31.9546 24.584 31.7109C24.6104 30.8653 24.6368 30.0196 24.6641 29.1484C23.4749 29.1484 22.2857 29.1484 21.0605 29.1484C21.0605 28.6991 21.0605 28.2499 21.0605 27.7871Z" fill="white"/>
</svg>
