<svg width="35" height="35" viewBox="0 0 35 35" fill="none" xmlns="http://www.w3.org/2000/svg">
<g clip-path="url(#clip0_2262_484)">
<path d="M34.5172 0.0854438C34.9745 0.473484 34.9745 0.473484 35.0174 0.827552C35.0388 1.44686 34.8664 2.00217 34.6938 2.58904C34.6604 2.70519 34.6271 2.82136 34.5939 2.93756C34.5028 3.25551 34.4105 3.57309 34.318 3.89062C34.2183 4.2337 34.1198 4.57711 34.0211 4.92048C33.8501 5.51518 33.6784 6.10968 33.5062 6.70404C33.2339 7.64381 32.963 8.58395 32.6923 9.52418C32.6229 9.76516 32.5535 10.0061 32.4841 10.2471C32.4374 10.4094 32.3907 10.5717 32.344 10.734C32.2014 11.2291 32.0587 11.7243 31.9159 12.2194C31.2331 14.5872 30.5553 16.9565 29.8815 19.3269C29.8109 19.5751 29.7403 19.8234 29.6697 20.0716C29.2622 21.5048 28.8548 22.938 28.4481 24.3715C28.2581 25.0409 28.068 25.7102 27.8775 26.3794C27.7617 26.7863 27.6462 27.1932 27.531 27.6003C27.4609 27.8476 27.3905 28.095 27.32 28.3422C27.2878 28.4552 27.2558 28.5682 27.2239 28.6812C26.7538 30.3472 26.7538 30.3472 26.3183 30.6933C25.9566 30.8139 25.5581 30.8385 25.1983 30.6981C25.0367 30.6056 24.8855 30.5051 24.7333 30.3977C24.6756 30.3591 24.6179 30.3205 24.5584 30.2808C24.3692 30.1536 24.1817 30.024 23.9941 29.8944C23.8611 29.8043 23.728 29.7145 23.5947 29.6247C23.3181 29.438 23.0422 29.2503 22.7668 29.0617C22.3706 28.7906 21.9728 28.522 21.5743 28.2543C21.082 27.9234 20.5902 27.5918 20.099 27.2594C19.4693 26.8335 18.8377 26.4106 18.2049 25.9894C18.1608 25.96 18.1167 25.9306 18.0713 25.9004C17.8353 25.7434 17.5993 25.5865 17.3633 25.4297C17.0292 25.7076 16.7164 25.9995 16.4113 26.3088C16.3667 26.3537 16.322 26.3987 16.276 26.445C16.1799 26.5418 16.0839 26.6387 15.9879 26.7357C15.8358 26.8894 15.6833 27.0428 15.5308 27.1961C15.0975 27.6317 14.6645 28.0676 14.2322 28.5041C13.967 28.7719 13.7013 29.0391 13.4353 29.306C13.3344 29.4075 13.2337 29.5092 13.1332 29.611C12.9925 29.7535 12.8512 29.8953 12.7098 30.037C12.6688 30.0789 12.6278 30.1207 12.5855 30.1638C12.2938 30.4542 11.9902 30.7189 11.5735 30.7956C10.9963 30.7817 10.9963 30.7817 10.7324 30.5566C10.1581 29.9103 10.0585 28.8301 9.86349 28.0054C9.8329 27.8766 9.80228 27.7479 9.77165 27.6191C9.72338 27.4161 9.67513 27.2131 9.627 27.0101C9.52616 26.5853 9.42355 26.161 9.31951 25.737C8.67875 23.125 8.67875 23.125 8.4971 21.9356C8.20898 19.8388 8.20898 19.8388 6.92032 18.2542C6.41745 17.9074 5.88235 17.6202 5.33734 17.3459C4.6246 16.9859 3.97812 16.5437 3.32383 16.088C3.02935 15.8836 2.73198 15.6835 2.43475 15.4831C2.35255 15.4274 2.35255 15.4274 2.26869 15.3705C1.99085 15.1822 1.71203 14.9956 1.43133 14.8116C1.34744 14.7564 1.34744 14.7564 1.26187 14.7001C1.15654 14.6309 1.05101 14.5621 0.945215 14.4937C0.260591 14.0435 0.260591 14.0435 0.136704 13.6719C0.103242 13.3224 0.0972233 13.0168 0.230698 12.6892C0.70127 12.2186 1.42876 12.032 2.04142 11.8083C2.13471 11.7739 2.22798 11.7394 2.32124 11.7049C2.52083 11.6312 2.7205 11.5577 2.92024 11.4844C3.40586 11.3061 3.89101 11.1265 4.37619 10.947C4.54451 10.8848 4.71285 10.8226 4.88118 10.7604C5.95043 10.3651 7.01738 9.96376 8.08381 9.56096C8.47524 9.41312 8.86672 9.26542 9.25818 9.11769C9.35675 9.08049 9.45532 9.0433 9.55389 9.0061C10.7166 8.5673 11.8801 8.13085 13.0438 7.6947C13.1467 7.65613 13.2496 7.61756 13.3525 7.57899C13.7648 7.42444 14.1771 7.26991 14.5894 7.11539C15.3093 6.84565 16.0291 6.5758 16.7488 6.30588C16.7996 6.28685 16.8503 6.26783 16.9026 6.24822C17.1587 6.15215 17.4149 6.05608 17.6711 5.96001C18.1324 5.78699 18.5938 5.61398 19.0551 5.44098C19.3115 5.34485 19.5679 5.24871 19.8242 5.15258C19.9267 5.11413 20.0293 5.07568 20.1318 5.03723C20.1826 5.01819 20.2333 4.99916 20.2856 4.97955C22.084 4.30517 23.8823 3.63079 25.6806 2.95642C25.7338 2.9365 25.7869 2.91659 25.8416 2.89607C25.9492 2.8557 26.0569 2.81533 26.1645 2.77496C26.4334 2.67412 26.7023 2.57328 26.9712 2.47241C27.4442 2.29498 27.9173 2.11762 28.3905 1.94069C28.6421 1.84659 28.8938 1.75243 29.1454 1.65824C29.2184 1.6309 29.2184 1.6309 29.293 1.60301C29.8809 1.38282 30.4679 1.16035 31.0536 0.93429C31.3601 0.815988 31.6669 0.698483 31.9738 0.581001C32.177 0.50274 32.3796 0.423161 32.5823 0.34351C33.9142 -0.171166 33.9142 -0.171166 34.5172 0.0854438ZM25.0195 8.4082C24.9547 8.45472 24.8898 8.50125 24.823 8.54919C24.16 9.02213 23.4876 9.47897 22.8074 9.92679C22.4805 10.1428 22.1583 10.3626 21.8424 10.5946C21.3848 10.9307 20.9109 11.2407 20.4368 11.5527C20.1021 11.7741 19.7717 11.9987 19.4482 12.2363C18.9912 12.572 18.5178 12.8817 18.0442 13.1934C17.7095 13.4148 17.3791 13.6394 17.0556 13.8769C16.5986 14.2127 16.1252 14.5223 15.6516 14.834C15.3169 15.0554 14.9865 15.28 14.6631 15.5176C14.206 15.8533 13.7326 16.1629 13.259 16.4746C12.9249 16.6956 12.595 16.9199 12.2721 17.1571C11.8731 17.4503 11.462 17.7234 11.0486 17.9956C10.9055 18.0898 10.7626 18.1841 10.6197 18.2786C10.5265 18.34 10.5265 18.34 10.4314 18.4026C10.2513 18.5272 10.0814 18.6601 9.91209 18.7988C10.0159 19.5225 10.1856 20.228 10.3564 20.938C10.3866 21.0639 10.4167 21.1897 10.4468 21.3156C10.5096 21.5776 10.5726 21.8395 10.6357 22.1014C10.7168 22.4376 10.797 22.774 10.8771 23.1105C10.9389 23.3696 11.0011 23.6286 11.0636 23.8876C11.0934 24.0117 11.1231 24.1358 11.1525 24.26C11.1935 24.4326 11.2352 24.605 11.2771 24.7774C11.2892 24.8289 11.3013 24.8804 11.3137 24.9335C11.3435 25.0545 11.3792 25.1739 11.416 25.293C11.4611 25.3155 11.5062 25.3381 11.5527 25.3613C11.5658 25.3129 11.5789 25.2644 11.5924 25.2145C11.7165 24.7558 11.8411 24.2972 11.9664 23.8388C12.0307 23.6032 12.0949 23.3675 12.1585 23.1317C12.2201 22.9037 12.2822 22.6759 12.3447 22.4482C12.3798 22.3199 12.4143 22.1914 12.4487 22.0629C12.4706 21.9836 12.4925 21.9043 12.515 21.8225C12.5338 21.7533 12.5527 21.6841 12.5721 21.6128C12.7445 21.1114 12.9721 20.7571 13.3512 20.3883C13.3939 20.3458 13.4365 20.3032 13.4804 20.2594C13.6202 20.1201 13.761 19.9818 13.9018 19.8434C13.9999 19.746 14.098 19.6484 14.196 19.5508C14.4536 19.2947 14.712 19.0393 14.9706 18.7842C15.3838 18.376 15.7958 17.9666 16.208 17.5574C16.3513 17.4152 16.4949 17.2734 16.6386 17.1316C17.0079 16.7665 17.3729 16.4042 17.7089 16.0078C18.0239 15.6559 18.3658 15.3282 18.7006 14.9954C18.8463 14.8506 18.9917 14.7056 19.137 14.5606C19.4979 14.2006 19.8592 13.8411 20.2204 13.4815C20.5264 13.1768 20.8322 12.8721 21.1378 12.5671C21.2803 12.4251 21.423 12.2832 21.5657 12.1414C21.9412 11.7673 22.3138 11.3956 22.657 10.9913C22.8705 10.7468 23.1036 10.5209 23.3338 10.2924C23.3862 10.24 23.4386 10.1877 23.4926 10.1338C23.6582 9.96857 23.824 9.80362 23.9899 9.63867C24.103 9.52591 24.216 9.41313 24.3291 9.30034C24.6046 9.02556 24.8804 8.75098 25.1562 8.47656C25.0886 8.44272 25.0886 8.44272 25.0195 8.4082Z" fill="white"/>
</g>
<defs>
<clipPath id="clip0_2262_484">
<rect width="35" height="35" fill="white"/>
</clipPath>
</defs>
</svg>
