<?xml version="1.0" encoding="UTF-8"?>
<svg id="_Слой_2" data-name="Слой 2" xmlns="http://www.w3.org/2000/svg" viewBox="0 0 2525.84 2014.44">
  <defs>
    <style>
      .cls-1 {
        fill: #ed711f;
      }

      .cls-1, .cls-2 {
        stroke-width: 0px;
      }

      .cls-2 {
        fill: #154a7c;
      }
    </style>
  </defs>
  <g id="_Слой_1-2" data-name="Слой 1">
    <g>
      <path class="cls-2" d="m2256.97,1172.84c31.14.54,62.29,1.02,93.43,1.67,7.77.16,12.17-4.86,17.14-9.63,29.04-27.87,63.54-34.65,99.81-19.5,67.45,28.16,73.14,106.72,34.56,149.22-35.85,39.5-98.42,41.47-135.66,3.99-6.31-6.35-12.52-9.43-21.62-9.42-328.73.31-657.47.4-986.2.55-5.2,0-10.41.51-17.28.86-.82,149.33-1.63,297.5-2.45,445.68-1.09.42-2.19.83-3.28,1.25-184.17-186.53-368.35-373.05-555.18-562.27,7.75-.6,11.77-1.18,15.79-1.18,135.87-.24,271.75-.42,407.62-.61,6.22,0,12.45,0,19.58,0,0-204.34,0-406.87-.08-609.39,0-2.13-1.17-4.26-2.43-8.56-4.93,4.21-8.64,6.97-11.87,10.22-38.81,38.99-77.48,78.12-116.33,117.08-53.98,54.13-108.1,108.12-162.11,162.23-41.97,42.04-83.8,84.21-125.81,126.22-52.68,52.69-105.48,105.24-158.19,157.89-44.44,44.39-88.75,88.91-133.26,133.23-22.77,22.67-45.97,44.91-68.71,67.6-4.01,4-6.76,9.28-10.09,13.97-3.56,2.44-7.56,4.43-10.62,7.39-24.58,23.87-49.01,47.89-73.37,71.98-1.98,1.95-3.11,4.76-4.64,7.17-17.13,15.82-34.95,30.96-51.24,47.61-34.38,35.15-67.8,71.24-102.03,106.54-5.51,5.69-5.89,11.62-6.11,18.51-2.18,69-76.29,112.99-137.11,80.34C18.13,1666.76.22,1640.4,0,1603.18c-.17-28.02,8.69-51.32,28.82-70.71,18.57-17.88,40.66-26.54,66.2-25.36,10.09.46,17.2-2.38,24.31-9.68,39.75-40.78,79.89-81.19,120.12-121.5,39.56-39.63,79.47-78.9,119.09-118.47,61.68-61.6,123.21-123.36,184.87-184.99,91.62-91.57,183.34-183.04,274.93-274.65,55.43-55.45,110.59-111.17,166.07-166.57,41.34-41.28,83.18-82.07,124.47-123.41,58.16-58.22,116.02-116.74,174-175.13,14.06-14.16,28.07-28.38,42.19-42.49,2.34-2.34,5.11-4.27,9.79-8.12,1.02,6.38,2.15,10.82,2.37,15.3,2.2,44.24,6.18,88.5,5.99,132.75-.66,155.85-3.23,311.69-4.13,467.54-.49,84.72.87,169.46,1.53,254.19.05,6.66,1.09,13.32,1.79,21.22,6.79.33,12.49.85,18.18.85,177.76-.02,355.53-.1,533.29-.13,76.46-.01,152.93.12,229.39.05,5.76,0,11.53-1.06,17.3-1.64,11.89.84,23.78,2.43,35.67,2.36,26.92-.15,53.83-1.11,80.74-1.74Zm-1034.77,281.84c1.37-3.93,1.96-4.82,1.96-5.72.06-48.58.11-97.16,0-145.74,0-4.14-1.15-8.29-1.93-13.52-54.27.96-107.3-.22-160.9,4.84,52.15,54.55,106.22,106.21,160.87,160.13Z"/>
      <path class="cls-1" d="m2256.97,1172.84c-26.91.63-53.83,1.59-80.74,1.74-11.88.06-23.78-1.53-35.67-2.36,3.46-17.12,7.46-34.16,10.27-51.39,7.16-43.99,5.94-88.38,4.03-132.62-2.86-66.22-10.08-132.09-26-196.53-7.92-32.06-18.82-63.44-29.63-94.7-18.68-54.04-44.86-104.56-74.52-153.35-33.26-54.71-72.32-104.9-116.4-151.29-61.17-64.38-130.53-118.51-207.96-161.6-95.18-52.96-196.33-89.5-304.79-104.56-63.37-8.8-126.82-12.85-190.75-8.85-91.49,5.73-180.18,24.01-265.6,57.74-48.1,18.99-94.39,41.58-138.36,68.71-73.71,45.48-139.72,100.22-197.68,164.79-70.3,78.33-125.91,165.99-165.43,263.29-37.82,93.11-60.07,190.17-64.68,290.91-.67,14.59-1.11,29.19-1.71,43.78-.24,5.79-.62,11.57-1.01,18.76-4.79.64-8.93,1.66-13.07,1.68-28.73.16-57.46.24-86.19.09-14.73-.08-15.47-.95-15.21-16.09,1.72-99.72,14-198.09,41.1-294.14,16.82-59.62,39.64-117.14,71.17-170.78,22.43-38.17,44.55-76.56,68.3-113.91,24.84-39.06,53.23-75.7,85.05-109.36,51.63-54.6,108.51-103.38,169.8-146.78,89.88-63.65,188.65-109.25,294.65-138.28C1122.79.28,1261.97-9.64,1402.76,9.54c114.27,15.57,223.22,48.54,325.81,101.94,81.77,42.57,155.02,96.81,222.91,158.83,51.63,47.17,97.15,99.7,137.34,156.71,49.6,70.36,88.73,146.35,118.94,227.05,32.46,86.72,53.7,175.84,60.93,268.25,4.31,55.05,2.14,109.95-2.85,164.8-2.61,28.6-5.88,57.15-8.85,85.72Z"/>
      <path class="cls-1" d="m345.74,1430.46c1.53-2.41,2.66-5.22,4.64-7.17,24.36-24.09,48.79-48.11,73.37-71.98,3.05-2.96,7.05-4.95,10.62-7.39,1.58,2.42,3.72,4.65,4.65,7.31,17.39,49.6,43.78,94.34,73.35,137.46,38.34,55.92,82.42,107.03,129.74,155.38,76.96,78.65,167.07,138.01,268.11,181.13,85.25,36.38,173.84,60.12,266.14,68.78,90.74,8.51,180.93,3.56,270.22-15.08,88.29-18.43,172.51-48.01,250.44-93.99,57.97-34.21,112.57-73.05,163.54-117.26,39.87-34.58,76.87-71.65,109.71-112.91,19.79-24.86,35.83-52.11,49.99-80.49,6.73-13.5,7.7-14.46,21.02-9.02,14.8,6.04,29.16,13.21,43.52,20.27,11.76,5.78,23.15,12.33,34.88,18.16,9.78,4.86,10.78,6.52,6.64,16.86-15.56,38.87-39.52,72.34-65.71,104.69-36.25,44.77-77.57,84.73-117.88,125.56-40.42,40.94-86.5,75.04-135.71,105.2-49.94,30.6-101.23,58.31-155.47,80.32-61.89,25.11-125.5,44.77-191.09,57.75-91.74,18.15-184.22,24.63-277.54,17.65-93.23-6.98-183.76-26.07-271.84-57.92-61.69-22.31-120.03-50.88-175.73-85.16-46.96-28.91-90.48-62.34-131.58-99.19-60.76-54.48-115.71-114.21-164.77-179.31-37.3-49.5-70.35-101.65-93.25-159.65Z"/>
    </g>
  </g>
</svg>