<svg width="40" height="40" viewBox="0 0 40 40" fill="none" xmlns="http://www.w3.org/2000/svg">
<path d="M31.3868 14.2237L20.0604 25.4533L8.83162 14.1269C8.52082 13.8129 8.01402 13.8113 7.70042 14.1221C7.38682 14.4329 7.38482 14.9397 7.69562 15.2529L19.3732 27.0321C19.5192 27.1793 19.7072 27.2573 19.898 27.2677C19.9536 27.2709 20.0092 27.2673 20.064 27.2593C20.0856 27.2625 20.1064 27.2677 20.128 27.2681C20.3456 27.2797 20.5676 27.2033 20.734 27.0377L32.5128 15.3593C32.8268 15.0485 32.8288 14.5421 32.5176 14.2281C32.2064 13.9141 31.7 13.9125 31.3868 14.2237Z" fill="white" stroke="white" stroke-width="4.16"/>
</svg>
