<svg width="40" height="38" viewBox="0 0 40 38" fill="none" xmlns="http://www.w3.org/2000/svg">
<g clip-path="url(#clip0_4053_320)">
<path d="M33.287 11.7167V28.3417C33.287 31.0334 31.1745 33.0917 28.412 33.0917H10.3745C10.3745 34.8334 11.837 36.2584 13.6245 36.2584H30.037C33.612 36.2584 36.537 33.4084 36.537 29.925V14.8834C36.537 13.1417 35.0745 11.7167 33.287 11.7167Z" fill="white"/>
<path d="M8.91211 1.7417V4.90837H7.28711C5.49961 4.90837 4.03711 6.33337 4.03711 8.07503V27.075C4.03711 28.8167 5.49961 30.2417 7.28711 30.2417H27.1121C28.8996 30.2417 30.3621 28.8167 30.3621 27.075V8.07503C30.3621 6.33337 28.8996 4.90837 27.1121 4.90837H25.4871V1.7417H22.2371V4.90837H12.1621V1.7417H8.91211ZM7.28711 12.825H27.1121V27.075H7.28711V12.825Z" fill="white"/>
<path d="M23.0496 25.8084L19.1496 23.5917L15.4121 25.8084L16.3871 21.5334L12.9746 18.6834L17.5246 18.3667L19.3121 14.25L21.0996 18.2084L25.6496 18.6834L22.2371 21.5334L23.0496 25.8084Z" fill="white"/>
</g>
<defs>
<clipPath id="clip0_4053_320">
<rect width="39" height="38" fill="white" transform="translate(0.38916)"/>
</clipPath>
</defs>
</svg>
