<svg width="172" height="120" viewBox="0 0 172 120" fill="none" xmlns="http://www.w3.org/2000/svg">
<g clip-path="url(#clip0_4189_3671)">
<path d="M100.728 3.02987C101.372 3.25808 102.016 3.48599 102.66 3.7136C103.997 4.18625 105.333 4.66022 106.669 5.1351C109.489 6.13636 112.318 7.12004 115.147 8.10458C120.276 9.89036 125.398 11.6876 130.518 13.4892C134.532 14.9014 138.55 16.3074 142.569 17.7094C143.487 18.0296 144.405 18.35 145.322 18.6705C145.623 18.7755 145.924 18.8806 146.234 18.9888C146.84 19.2005 147.446 19.4121 148.052 19.6238C149.89 20.2655 151.729 20.9058 153.568 21.5452C154.76 21.96 155.952 22.376 157.143 22.7922C157.702 22.987 158.261 23.1814 158.82 23.3752C168.241 26.642 168.241 26.642 169.976 30.305C170.812 32.6717 170.666 34.9858 169.424 37.2776C167.964 39.4205 166.147 40.6857 163.423 41.6738C163.178 41.7645 162.934 41.8553 162.682 41.9487C159.626 43.0745 156.53 44.1233 153.436 45.1732C152.785 45.3949 152.134 45.6167 151.483 45.8386C150.135 46.2982 148.786 46.7574 147.438 47.2162C144.561 48.1952 141.687 49.1788 138.813 50.1628C137.88 50.4821 136.947 50.8013 136.015 51.1205C131.988 52.4987 127.964 53.8824 123.942 55.2695C117.079 57.6359 110.212 59.9954 103.337 62.3382C102.48 62.6306 101.623 62.9237 100.766 63.2171C99.46 63.6644 98.1523 64.1091 96.8436 64.5517C96.3708 64.7121 95.8984 64.8732 95.4265 65.0353C89.3007 67.1372 84.0298 67.5611 77.862 65.5408C75.6582 64.7792 73.4791 63.9745 71.2982 63.172C68.2531 62.0553 65.1784 60.9926 62.1066 59.9241C61.482 59.7065 60.8575 59.4889 60.233 59.2712C58.9623 58.8284 57.6916 58.3857 56.4207 57.9432C53.3203 56.8635 50.2208 55.7819 47.1215 54.7002C46.6672 54.5416 46.6672 54.5416 46.2037 54.3799C41.4261 52.7125 36.6521 51.0386 31.8818 49.3579C28.9604 48.3292 26.0352 47.3079 23.1058 46.2939C22.1224 45.9529 21.139 45.6118 20.1556 45.2706C19.5284 45.0534 18.9009 44.8367 18.2731 44.6206C15.3006 43.5974 12.3453 42.5614 9.46558 41.3776C9.25616 41.2919 9.04673 41.2062 8.83096 41.1179C6.07654 39.9598 4.73338 38.5915 3.70295 36.1976C2.95818 33.7051 3.31227 31.3896 4.72718 29.067C7.56188 25.3233 13.272 24.1496 17.9754 22.5527C18.6369 22.3274 19.2983 22.1019 19.9596 21.8763C21.3332 21.408 22.707 20.94 24.0809 20.4724C26.9704 19.4886 29.8578 18.5005 32.7451 17.5121C33.6769 17.1931 34.6088 16.8742 35.5406 16.5553C39.5673 15.1771 43.5912 13.7934 47.6134 12.4062C52.9295 10.5728 58.2484 8.745 63.5726 6.92796C66.3164 5.99129 69.0594 5.05317 71.7948 4.09943C72.9375 3.70125 74.0811 3.30514 75.2249 2.90921C75.7547 2.72513 76.284 2.54005 76.8127 2.35384C85.8702 -0.835039 92.0622 -0.0770966 100.728 3.02987Z" fill="black"/>
<path d="M33.9352 55.9393C34.3955 56.0639 34.8556 56.189 35.3156 56.3143C35.7 56.4187 35.7 56.4187 36.0921 56.5253C37.2416 56.8522 38.3515 57.2411 39.4649 57.6387C39.7085 57.7248 39.9522 57.8108 40.2033 57.8995C40.7296 58.0854 41.2558 58.2718 41.7817 58.4586C42.9244 58.8644 44.0682 59.2681 45.212 59.6718C45.818 59.8858 46.4239 60.0998 47.0297 60.3139C51.0074 61.7193 54.9937 63.1088 58.9803 64.4978C59.5883 64.7097 60.1964 64.9216 60.8044 65.1335C61.103 65.2376 61.4016 65.3416 61.7093 65.4488C63.4893 66.0694 65.2674 66.6932 67.0441 67.3199C68.1644 67.7149 69.2853 68.1087 70.4064 68.5023C70.9255 68.685 71.4442 68.8683 71.9626 69.0522C76.3884 70.6222 80.6718 72.0433 85.6053 72.0967C85.9431 72.1083 85.9431 72.1083 86.2878 72.1202C92.084 72.1747 97.4801 69.9709 102.714 68.1117C103.505 67.8344 104.295 67.5575 105.086 67.2809C106.691 66.7193 108.296 66.1561 109.9 65.5919C113.286 64.4029 116.686 63.2434 120.086 62.0841C121.285 61.6748 122.484 61.2653 123.683 60.8556C124.111 60.7092 124.111 60.7092 124.548 60.5598C126.504 59.8909 128.458 59.217 130.411 58.5408C130.928 58.3618 131.446 58.1829 131.963 58.004C132.915 57.6748 133.866 57.3445 134.816 57.0134C135.233 56.8691 135.65 56.7249 136.067 56.5807C136.426 56.456 136.784 56.3313 137.154 56.2028C137.994 55.9393 137.994 55.9393 138.648 55.9393C138.582 59.0366 138.511 62.1339 138.434 65.2313C138.398 66.6698 138.363 68.1082 138.333 69.5466C138.305 70.9362 138.271 72.3258 138.234 73.7154C138.22 74.2441 138.209 74.7728 138.199 75.3014C138.099 80.6102 138.099 80.6102 136.901 82.7288C136.754 82.9968 136.608 83.2647 136.456 83.5408C134.387 86.5417 131.86 88.5793 128.179 90.2299C127.958 90.3306 127.736 90.4314 127.508 90.5353C123.551 92.3254 119.514 93.7865 115.28 95.052C115.039 95.1251 114.798 95.1982 114.55 95.2736C93.05 101.727 68.7225 100.486 48.3866 92.787C41.699 90.1881 36.4174 87.6823 33.7756 81.7179C33.251 80.3704 33.2282 79.1333 33.2763 77.7149C33.2829 77.4796 33.2896 77.2443 33.2965 77.0018C33.3189 76.2249 33.3436 75.4479 33.3684 74.671C33.3844 74.132 33.4002 73.5929 33.4159 73.0539C33.4577 71.6358 33.5014 70.2176 33.5455 68.7995C33.5902 67.3522 33.633 65.9048 33.676 64.4575C33.7606 61.6181 33.8472 58.7787 33.9352 55.9393Z" fill="black"/>
<path d="M156.495 49.7776C156.486 50.0723 156.478 50.3669 156.468 50.6705C156.438 51.7651 156.421 52.8593 156.408 53.9537C156.4 54.4271 156.389 54.9006 156.375 55.374C156.354 56.0552 156.346 56.7357 156.341 57.4168C156.332 57.6281 156.323 57.8394 156.314 58.0571C156.295 58.7352 156.295 58.7352 156.539 59.6898C157.441 60.361 157.441 60.361 158.472 60.7613C160.266 62.1049 161.124 63.6637 161.369 65.6525C161.415 67.6747 160.754 69.4105 159.101 70.9581C158.791 71.2238 158.478 71.4874 158.158 71.7451C158.514 72.3946 158.827 72.8591 159.4 73.4027C161.264 75.5529 161.088 78.0039 160.998 80.5523C160.977 81.1732 160.969 81.7935 160.962 82.4143C160.951 82.8132 160.939 83.2121 160.927 83.6109C160.925 83.886 160.925 83.886 160.922 84.1666C160.861 85.5009 160.402 86.2571 159.351 87.283C158.049 87.9826 156.95 87.9055 155.461 87.9088C155.034 87.9114 155.034 87.9114 154.599 87.9142C153.997 87.9169 153.395 87.9181 152.793 87.9181C151.875 87.9192 150.957 87.9289 150.039 87.9391C149.453 87.9407 148.867 87.9418 148.282 87.9423C148.009 87.9461 147.735 87.95 147.454 87.9539C145.698 87.9427 144.695 87.7073 143.332 86.7472C142.555 85.4124 143 83.3389 143.03 81.8543C143.038 81.3695 143.043 80.8847 143.045 80.4C143.06 74.7345 143.06 74.7345 145.59 72.6168C145.737 72.5059 145.884 72.3951 146.036 72.2808C145.504 71.3297 144.863 70.4608 144.189 69.5757C143.094 67.9917 143.407 66.0152 143.647 64.244C144.345 62.4234 145.674 60.9476 147.697 59.9577C148.348 59.825 148.348 59.825 149.013 59.6898C149.084 57.2144 149.154 54.7391 149.227 52.1887C150.305 51.7909 151.383 51.393 152.493 50.9832C152.832 50.8573 153.172 50.7314 153.521 50.6017C153.788 50.5038 154.055 50.4059 154.33 50.3051C154.741 50.1535 154.741 50.1535 155.159 49.999C155.841 49.7776 155.841 49.7776 156.495 49.7776Z" fill="black"/>
</g>
<defs>
<clipPath id="clip0_4189_3671">
<rect width="167.54" height="119.211" fill="white" transform="matrix(1 0 -0.0285427 0.999592 4.11914 4.57764e-05)"/>
</clipPath>
</defs>
</svg>
