<svg width="172" height="120" viewBox="0 0 172 120" fill="none" xmlns="http://www.w3.org/2000/svg">
<g clip-path="url(#clip0_4052_218)">
<path d="M100.727 3.02982C101.371 3.25804 102.015 3.48594 102.659 3.71356C103.996 4.18621 105.332 4.66018 106.668 5.13505C109.488 6.13632 112.317 7.12 115.146 8.10453C120.275 9.89032 125.397 11.6876 130.517 13.4891C134.531 14.9014 138.549 16.3073 142.568 17.7094C143.486 18.0296 144.404 18.35 145.321 18.6704C145.622 18.7755 145.923 18.8805 146.233 18.9888C146.839 19.2004 147.445 19.4121 148.051 19.6238C149.889 20.2655 151.728 20.9058 153.567 21.5452C154.759 21.96 155.951 22.3759 157.142 22.7921C157.701 22.987 158.26 23.1813 158.819 23.3752C168.24 26.6419 168.24 26.6419 169.975 30.3049C170.811 32.6717 170.665 34.9858 169.423 37.2775C167.963 39.4204 166.146 40.6856 163.422 41.6737C163.177 41.7645 162.933 41.8552 162.681 41.9487C159.625 43.0744 156.529 44.1232 153.435 45.1731C152.784 45.3948 152.133 45.6166 151.482 45.8385C150.134 46.2982 148.785 46.7574 147.437 47.2162C144.56 48.1951 141.686 49.1788 138.812 50.1627C137.879 50.4821 136.946 50.8013 136.014 51.1205C131.987 52.4986 127.963 53.8824 123.941 55.2694C117.078 57.6358 110.211 59.9953 103.336 62.3382C102.479 62.6306 101.622 62.9237 100.766 63.2171C99.459 63.6643 98.1513 64.109 96.8426 64.5517C96.3698 64.712 95.8974 64.8732 95.4255 65.0353C89.2998 67.1372 84.0288 67.561 77.861 65.5407C75.6573 64.7791 73.4781 63.9744 71.2972 63.172C68.2521 62.0552 65.1774 60.9926 62.1056 59.9241C61.4811 59.7065 60.8565 59.4888 60.232 59.2712C58.9614 58.8283 57.6906 58.3856 56.4197 57.9431C53.3193 56.8635 50.2199 55.7819 47.1205 54.7001C46.6662 54.5416 46.6662 54.5416 46.2027 54.3798C41.4252 52.7124 36.6512 51.0386 31.8808 49.3579C28.9595 48.3291 26.0343 47.3078 23.1048 46.2939C22.1214 45.9528 21.138 45.6117 20.1547 45.2706C19.5275 45.0534 18.9 44.8367 18.2722 44.6206C15.2997 43.5973 12.3444 42.5613 9.4646 41.3776C9.25518 41.2919 9.04576 41.2062 8.82999 41.1179C6.07556 39.9597 4.73241 38.5914 3.70197 36.1976C2.9572 33.7051 3.3113 31.3895 4.72621 29.0669C7.5609 25.3232 13.271 24.1496 17.9745 22.5527C18.6359 22.3273 19.2973 22.1019 19.9587 21.8763C21.3322 21.4079 22.706 20.94 24.0799 20.4723C26.9694 19.4885 29.8569 18.5005 32.7441 17.512C33.6759 17.193 34.6078 16.8741 35.5397 16.5553C39.5663 15.1771 43.5902 13.7934 47.6124 12.4062C52.9286 10.5727 58.2474 8.74496 63.5716 6.92791C66.3155 5.99124 69.0584 5.05312 71.7939 4.09938C72.9365 3.7012 74.0802 3.30509 75.2239 2.90916C75.7537 2.72509 76.283 2.54 76.8117 2.3538C85.8692 -0.835085 92.0612 -0.0771424 100.727 3.02982Z" fill="white" fill-opacity="0.3"/>
<path d="M33.9352 55.9392C34.3955 56.0638 34.8556 56.1889 35.3156 56.3143C35.7 56.4187 35.7 56.4187 36.0921 56.5252C37.2416 56.8522 38.3515 57.2411 39.4649 57.6387C39.7085 57.7247 39.9522 57.8108 40.2033 57.8994C40.7296 58.0854 41.2558 58.2718 41.7817 58.4586C42.9244 58.8644 44.0682 59.268 45.212 59.6718C45.818 59.8857 46.4239 60.0998 47.0297 60.3139C51.0074 61.7193 54.9937 63.1088 58.9803 64.4978C59.5883 64.7097 60.1964 64.9216 60.8044 65.1335C61.103 65.2375 61.4016 65.3416 61.7093 65.4488C63.4893 66.0694 65.2674 66.6932 67.0441 67.3199C68.1644 67.7149 69.2853 68.1087 70.4064 68.5023C70.9255 68.685 71.4442 68.8682 71.9626 69.0522C76.3884 70.6221 80.6718 72.0433 85.6053 72.0966C85.9431 72.1083 85.9431 72.1083 86.2878 72.1202C92.084 72.1747 97.4801 69.9709 102.714 68.1117C103.505 67.8343 104.295 67.5574 105.086 67.2809C106.691 66.7192 108.296 66.156 109.9 65.5918C113.286 64.4029 116.686 63.2434 120.086 62.0841C121.285 61.6748 122.484 61.2652 123.683 60.8555C124.111 60.7091 124.111 60.7091 124.548 60.5598C126.504 59.8908 128.458 59.217 130.411 58.5407C130.928 58.3618 131.446 58.1829 131.963 58.004C132.915 57.6748 133.866 57.3444 134.816 57.0133C135.233 56.8691 135.65 56.7249 136.067 56.5807C136.426 56.456 136.784 56.3312 137.154 56.2027C137.994 55.9392 137.994 55.9392 138.648 55.9392C138.582 59.0366 138.511 62.1339 138.434 65.2313C138.398 66.6697 138.363 68.1081 138.333 69.5465C138.305 70.9362 138.271 72.3257 138.234 73.7154C138.22 74.244 138.209 74.7727 138.199 75.3014C138.099 80.6102 138.099 80.6102 136.901 82.7287C136.754 82.9967 136.608 83.2647 136.456 83.5408C134.387 86.5417 131.86 88.5793 128.179 90.2298C127.958 90.3306 127.736 90.4314 127.508 90.5352C123.551 92.3254 119.514 93.7864 115.28 95.0519C115.039 95.1251 114.798 95.1982 114.55 95.2735C93.05 101.727 68.7225 100.486 48.3866 92.787C41.699 90.188 36.4174 87.6823 33.7756 81.7179C33.251 80.3704 33.2282 79.1333 33.2763 77.7149C33.2829 77.4795 33.2896 77.2442 33.2965 77.0018C33.3189 76.2248 33.3436 75.4479 33.3684 74.671C33.3844 74.1319 33.4002 73.5929 33.4159 73.0539C33.4577 71.6357 33.5014 70.2176 33.5455 68.7995C33.5902 67.3521 33.633 65.9048 33.676 64.4574C33.7606 61.618 33.8472 58.7786 33.9352 55.9392Z" fill="white" fill-opacity="0.3"/>
<path d="M156.494 49.7776C156.485 50.0722 156.477 50.3669 156.468 50.6705C156.437 51.765 156.42 52.8592 156.407 53.9536C156.399 54.4271 156.388 54.9005 156.374 55.374C156.353 56.0552 156.345 56.7357 156.34 57.4168C156.331 57.6281 156.322 57.8394 156.313 58.057C156.294 58.7352 156.294 58.7352 156.538 59.6897C157.44 60.3609 157.44 60.3609 158.471 60.7613C160.266 62.1049 161.123 63.6637 161.368 65.6525C161.414 67.6746 160.753 69.4104 159.1 70.9581C158.79 71.2237 158.477 71.4874 158.157 71.745C158.513 72.3946 158.826 72.859 159.399 73.4026C161.263 75.5529 161.087 78.0038 160.997 80.5523C160.976 81.1732 160.968 81.7934 160.961 82.4143C160.95 82.8131 160.938 83.212 160.926 83.6109C160.924 83.886 160.924 83.886 160.921 84.1666C160.86 85.5008 160.401 86.2571 159.35 87.2829C158.048 87.9826 156.949 87.9055 155.46 87.9087C155.033 87.9114 155.033 87.9114 154.598 87.9141C153.996 87.9168 153.394 87.9181 152.792 87.918C151.874 87.9192 150.956 87.9289 150.038 87.9391C149.452 87.9406 148.866 87.9417 148.281 87.9422C148.008 87.9461 147.734 87.9499 147.453 87.9539C145.697 87.9427 144.694 87.7072 143.331 86.7471C142.554 85.4124 142.999 83.3388 143.029 81.8543C143.037 81.3695 143.042 80.8847 143.044 80.3999C143.06 74.7344 143.06 74.7344 145.589 72.6167C145.736 72.5059 145.883 72.395 146.035 72.2808C145.503 71.3297 144.862 70.4607 144.188 69.5757C143.093 67.9916 143.406 66.0151 143.646 64.2439C144.344 62.4234 145.673 60.9476 147.696 59.9576C148.347 59.825 148.347 59.825 149.012 59.6897C149.083 57.2144 149.153 54.739 149.226 52.1886C150.304 51.7908 151.382 51.393 152.492 50.9831C152.831 50.8572 153.171 50.7314 153.52 50.6017C153.787 50.5038 154.054 50.4059 154.329 50.305C154.74 50.1535 154.74 50.1535 155.158 49.9989C155.84 49.7776 155.84 49.7776 156.494 49.7776Z" fill="white" fill-opacity="0.3"/>
</g>
<defs>
<clipPath id="clip0_4052_218">
<rect width="167.54" height="119.211" fill="white" transform="matrix(1 0 -0.0285427 0.999592 4.11865 0)"/>
</clipPath>
</defs>
</svg>
