<svg width="93" height="129" viewBox="0 0 93 129" fill="none" xmlns="http://www.w3.org/2000/svg">
<path d="M0.362793 3.00073C0.362793 1.34388 1.70593 0 3.36279 0C31.7369 0 60.1376 0 89.3164 0C90.9733 0 92.3165 1.34313 92.3165 2.99999C92.3165 44.5707 92.3165 86.1703 92.3165 129C83.2131 129 74.1096 129 64.7304 129C64.7304 119.106 64.7304 109.212 64.7304 99.0176C52.7009 99.0176 40.6713 99.0176 28.2773 99.0176C28.2773 108.912 28.2773 118.806 28.2773 129C19.0655 129 9.85373 129 0.362793 129C0.362793 87.4015 0.362793 45.8029 0.362793 3.00073ZM17.1559 18.1406C15.499 18.1406 14.1558 19.4838 14.1558 21.1406C14.1558 22.6594 14.1558 24.1838 14.1558 25.7226C14.1558 27.3795 15.499 28.7227 17.1558 28.7227C18.4333 28.7227 19.7153 28.7227 21.008 28.7227C22.6648 28.7227 24.008 27.3795 24.008 25.7227C24.008 24.2039 24.008 22.6794 24.008 21.1406C24.008 19.4838 22.6649 18.1406 21.008 18.1406C19.7306 18.1406 18.4485 18.1406 17.1559 18.1406ZM35.5466 18.1406C33.8897 18.1406 32.5466 19.4838 32.5466 21.1406C32.5466 22.6594 32.5466 24.1838 32.5466 25.7226C32.5466 27.3795 33.8897 28.7227 35.5466 28.7227C36.7154 28.7227 37.8884 28.7227 39.0703 28.7227C40.7272 28.7227 42.0704 27.3795 42.0704 25.7227C42.0704 24.2039 42.0704 22.6794 42.0704 21.1406C42.0704 19.4838 40.7272 18.1406 39.0704 18.1406C37.9016 18.1406 36.7286 18.1406 35.5466 18.1406ZM53.9373 18.1406C52.2805 18.1406 50.9373 19.4838 50.9373 21.1406C50.9373 22.6594 50.9373 24.1838 50.9373 25.7226C50.9373 27.3795 52.2804 28.7227 53.9373 28.7227C55.1061 28.7227 56.2791 28.7227 57.4611 28.7227C59.1179 28.7227 60.4611 27.3795 60.4611 25.7227C60.4611 24.2039 60.4611 22.6794 60.4611 21.1406C60.4611 19.4838 59.118 18.1406 57.4611 18.1406C56.2923 18.1406 55.1193 18.1406 53.9373 18.1406ZM71.9997 18.1406C70.3428 18.1406 68.9996 19.4838 68.9996 21.1406C68.9996 22.6594 68.9996 24.1838 68.9996 25.7226C68.9996 27.3795 70.3428 28.7227 71.9996 28.7227C73.2771 28.7227 74.5591 28.7227 75.8518 28.7227C77.5086 28.7227 78.8518 27.3795 78.8518 25.7227C78.8518 24.2039 78.8518 22.6794 78.8518 21.1406C78.8518 19.4838 77.5087 18.1406 75.8518 18.1406C74.5744 18.1406 73.2923 18.1406 71.9997 18.1406ZM17.1559 38.0449C15.499 38.0449 14.1558 39.3881 14.1558 41.0449C14.1558 42.5637 14.1558 44.0881 14.1558 45.6269C14.1558 47.2838 15.499 48.627 17.1558 48.627C18.4333 48.627 19.7153 48.627 21.008 48.627C22.6648 48.627 24.008 47.2838 24.008 45.627C24.008 44.1082 24.008 42.5837 24.008 41.0449C24.008 39.3881 22.6649 38.0449 21.008 38.0449C19.7306 38.0449 18.4485 38.0449 17.1559 38.0449ZM35.5466 38.0449C33.8897 38.0449 32.5466 39.3881 32.5466 41.0449C32.5466 42.5637 32.5466 44.0881 32.5466 45.6269C32.5466 47.2838 33.8897 48.627 35.5466 48.627C36.7154 48.627 37.8884 48.627 39.0703 48.627C40.7272 48.627 42.0704 47.2838 42.0704 45.627C42.0704 44.1082 42.0704 42.5837 42.0704 41.0449C42.0704 39.3881 40.7272 38.0449 39.0704 38.0449C37.9016 38.0449 36.7286 38.0449 35.5466 38.0449ZM53.9373 38.0449C52.2805 38.0449 50.9373 39.3881 50.9373 41.0449C50.9373 42.5637 50.9373 44.0881 50.9373 45.6269C50.9373 47.2838 52.2804 48.627 53.9373 48.627C55.1061 48.627 56.2791 48.627 57.4611 48.627C59.1179 48.627 60.4611 47.2838 60.4611 45.627C60.4611 44.1082 60.4611 42.5837 60.4611 41.0449C60.4611 39.3881 59.118 38.0449 57.4611 38.0449C56.2923 38.0449 55.1193 38.0449 53.9373 38.0449ZM71.9997 38.0449C70.3428 38.0449 68.9996 39.3881 68.9996 41.0449C68.9996 42.5637 68.9996 44.0881 68.9996 45.6269C68.9996 47.2838 70.3428 48.627 71.9996 48.627C73.2771 48.627 74.5591 48.627 75.8518 48.627C77.5086 48.627 78.8518 47.2838 78.8518 45.627C78.8518 44.1082 78.8518 42.5837 78.8518 41.0449C78.8518 39.3881 77.5087 38.0449 75.8518 38.0449C74.5744 38.0449 73.2923 38.0449 71.9997 38.0449ZM17.1559 57.6973C15.499 57.6973 14.1558 59.0404 14.1558 60.6973C14.1558 62.216 14.1558 63.7405 14.1558 65.2793C14.1558 66.9361 15.499 68.2793 17.1558 68.2793C18.4333 68.2793 19.7153 68.2793 21.008 68.2793C22.6648 68.2793 24.008 66.9362 24.008 65.2793C24.008 63.7605 24.008 62.2361 24.008 60.6973C24.008 59.0404 22.6649 57.6973 21.008 57.6973C19.7306 57.6973 18.4485 57.6973 17.1559 57.6973ZM35.5466 57.6973C33.8897 57.6973 32.5466 59.0404 32.5466 60.6973C32.5466 62.216 32.5466 63.7405 32.5466 65.2793C32.5466 66.9361 33.8897 68.2793 35.5466 68.2793C36.7154 68.2793 37.8884 68.2793 39.0703 68.2793C40.7272 68.2793 42.0704 66.9362 42.0704 65.2793C42.0704 63.7605 42.0704 62.2361 42.0704 60.6973C42.0704 59.0404 40.7272 57.6973 39.0704 57.6973C37.9016 57.6973 36.7286 57.6973 35.5466 57.6973ZM53.9373 57.6973C52.2805 57.6973 50.9373 59.0404 50.9373 60.6973C50.9373 62.216 50.9373 63.7405 50.9373 65.2793C50.9373 66.9361 52.2804 68.2793 53.9373 68.2793C55.1061 68.2793 56.2791 68.2793 57.4611 68.2793C59.1179 68.2793 60.4611 66.9362 60.4611 65.2793C60.4611 63.7605 60.4611 62.2361 60.4611 60.6973C60.4611 59.0404 59.118 57.6973 57.4611 57.6973C56.2923 57.6973 55.1193 57.6973 53.9373 57.6973ZM71.9997 57.6973C70.3428 57.6973 68.9996 59.0404 68.9996 60.6973C68.9996 62.216 68.9996 63.7405 68.9996 65.2793C68.9996 66.9361 70.3428 68.2793 71.9996 68.2793C73.2771 68.2793 74.5591 68.2793 75.8518 68.2793C77.5086 68.2793 78.8518 66.9362 78.8518 65.2793C78.8518 63.7605 78.8518 62.2361 78.8518 60.6973C78.8518 59.0404 77.5087 57.6973 75.8518 57.6973C74.5744 57.6973 73.2923 57.6973 71.9997 57.6973ZM17.1559 77.6016C15.499 77.6016 14.1558 78.9447 14.1558 80.6016C14.1558 82.1203 14.1558 83.6448 14.1558 85.1836C14.1558 86.8404 15.499 88.1836 17.1558 88.1836C18.4333 88.1836 19.7153 88.1836 21.008 88.1836C22.6648 88.1836 24.008 86.8405 24.008 85.1836C24.008 83.6648 24.008 82.1404 24.008 80.6016C24.008 78.9447 22.6649 77.6016 21.008 77.6016C19.7306 77.6016 18.4485 77.6016 17.1559 77.6016ZM35.5466 77.6016C33.8897 77.6016 32.5466 78.9447 32.5466 80.6016C32.5466 82.1203 32.5466 83.6448 32.5466 85.1836C32.5466 86.8404 33.8897 88.1836 35.5466 88.1836C36.7154 88.1836 37.8884 88.1836 39.0703 88.1836C40.7272 88.1836 42.0704 86.8405 42.0704 85.1836C42.0704 83.6648 42.0704 82.1404 42.0704 80.6016C42.0704 78.9447 40.7272 77.6016 39.0704 77.6016C37.9016 77.6016 36.7286 77.6016 35.5466 77.6016ZM53.9373 77.6016C52.2805 77.6016 50.9373 78.9447 50.9373 80.6016C50.9373 82.1203 50.9373 83.6448 50.9373 85.1836C50.9373 86.8404 52.2804 88.1836 53.9373 88.1836C55.1061 88.1836 56.2791 88.1836 57.4611 88.1836C59.1179 88.1836 60.4611 86.8405 60.4611 85.1836C60.4611 83.6648 60.4611 82.1404 60.4611 80.6016C60.4611 78.9447 59.118 77.6016 57.4611 77.6016C56.2923 77.6016 55.1193 77.6016 53.9373 77.6016ZM71.9997 77.6016C70.3428 77.6016 68.9996 78.9447 68.9996 80.6016C68.9996 82.1203 68.9996 83.6448 68.9996 85.1836C68.9996 86.8404 70.3428 88.1836 71.9996 88.1836C73.2771 88.1836 74.5591 88.1836 75.8518 88.1836C77.5086 88.1836 78.8518 86.8405 78.8518 85.1836C78.8518 83.6648 78.8518 82.1404 78.8518 80.6016C78.8518 78.9447 77.5087 77.6016 75.8518 77.6016C74.5744 77.6016 73.2923 77.6016 71.9997 77.6016Z" fill="white" fill-opacity="0.3"/>
</svg>
