<svg width="169" height="129" viewBox="0 0 169 129" fill="none" xmlns="http://www.w3.org/2000/svg">
<g clip-path="url(#clip0_4189_3679)">
<path d="M12.3633 3.00073C12.3633 1.34388 13.7064 0 15.3633 0C43.7374 0 72.1381 0 101.317 0C102.974 0 104.317 1.34313 104.317 2.99999C104.317 44.5707 104.317 86.1703 104.317 129C95.2135 129 86.1101 129 76.7309 129C76.7309 119.106 76.7309 109.212 76.7309 99.0176C64.7013 99.0176 52.6718 99.0176 40.2778 99.0176C40.2778 108.912 40.2778 118.806 40.2778 129C31.066 129 21.8542 129 12.3633 129C12.3633 87.4015 12.3633 45.8029 12.3633 3.00073ZM29.1564 18.1406C27.4995 18.1406 26.1563 19.4838 26.1563 21.1406C26.1563 22.6594 26.1563 24.1838 26.1563 25.7226C26.1563 27.3795 27.4995 28.7227 29.1563 28.7227C30.4337 28.7227 31.7158 28.7227 33.0085 28.7227C34.6653 28.7227 36.0085 27.3795 36.0085 25.7227C36.0085 24.2039 36.0085 22.6794 36.0085 21.1406C36.0085 19.4838 34.6654 18.1406 33.0085 18.1406C31.7311 18.1406 30.449 18.1406 29.1564 18.1406ZM47.5471 18.1406C45.8902 18.1406 44.5471 19.4838 44.5471 21.1406C44.5471 22.6594 44.5471 24.1838 44.5471 25.7226C44.5471 27.3795 45.8902 28.7227 47.5471 28.7227C48.7159 28.7227 49.8888 28.7227 51.0708 28.7227C52.7277 28.7227 54.0708 27.3795 54.0708 25.7227C54.0708 24.2039 54.0708 22.6794 54.0708 21.1406C54.0708 19.4838 52.7277 18.1406 51.0709 18.1406C49.902 18.1406 48.7291 18.1406 47.5471 18.1406ZM65.9378 18.1406C64.281 18.1406 62.9378 19.4838 62.9378 21.1406C62.9378 22.6594 62.9378 24.1838 62.9378 25.7226C62.9378 27.3795 64.2809 28.7227 65.9378 28.7227C67.1066 28.7227 68.2796 28.7227 69.4616 28.7227C71.1184 28.7227 72.4616 27.3795 72.4616 25.7227C72.4616 24.2039 72.4616 22.6794 72.4616 21.1406C72.4616 19.4838 71.1184 18.1406 69.4616 18.1406C68.2928 18.1406 67.1198 18.1406 65.9378 18.1406ZM84.0002 18.1406C82.3433 18.1406 81.0001 19.4838 81.0001 21.1406C81.0001 22.6594 81.0001 24.1838 81.0001 25.7226C81.0001 27.3795 82.3433 28.7227 84.0001 28.7227C85.2775 28.7227 86.5596 28.7227 87.8523 28.7227C89.5091 28.7227 90.8523 27.3795 90.8523 25.7227C90.8523 24.2039 90.8523 22.6794 90.8523 21.1406C90.8523 19.4838 89.5092 18.1406 87.8523 18.1406C86.5749 18.1406 85.2928 18.1406 84.0002 18.1406ZM29.1564 38.0449C27.4995 38.0449 26.1563 39.3881 26.1563 41.0449C26.1563 42.5637 26.1563 44.0881 26.1563 45.6269C26.1563 47.2838 27.4995 48.627 29.1563 48.627C30.4337 48.627 31.7158 48.627 33.0085 48.627C34.6653 48.627 36.0085 47.2838 36.0085 45.627C36.0085 44.1082 36.0085 42.5837 36.0085 41.0449C36.0085 39.3881 34.6654 38.0449 33.0085 38.0449C31.7311 38.0449 30.449 38.0449 29.1564 38.0449ZM47.5471 38.0449C45.8902 38.0449 44.5471 39.3881 44.5471 41.0449C44.5471 42.5637 44.5471 44.0881 44.5471 45.6269C44.5471 47.2838 45.8902 48.627 47.5471 48.627C48.7159 48.627 49.8888 48.627 51.0708 48.627C52.7277 48.627 54.0708 47.2838 54.0708 45.627C54.0708 44.1082 54.0708 42.5837 54.0708 41.0449C54.0708 39.3881 52.7277 38.0449 51.0709 38.0449C49.902 38.0449 48.7291 38.0449 47.5471 38.0449ZM65.9378 38.0449C64.281 38.0449 62.9378 39.3881 62.9378 41.0449C62.9378 42.5637 62.9378 44.0881 62.9378 45.6269C62.9378 47.2838 64.2809 48.627 65.9378 48.627C67.1066 48.627 68.2796 48.627 69.4616 48.627C71.1184 48.627 72.4616 47.2838 72.4616 45.627C72.4616 44.1082 72.4616 42.5837 72.4616 41.0449C72.4616 39.3881 71.1184 38.0449 69.4616 38.0449C68.2928 38.0449 67.1198 38.0449 65.9378 38.0449ZM84.0002 38.0449C82.3433 38.0449 81.0001 39.3881 81.0001 41.0449C81.0001 42.5637 81.0001 44.0881 81.0001 45.6269C81.0001 47.2838 82.3433 48.627 84.0001 48.627C85.2775 48.627 86.5596 48.627 87.8523 48.627C89.5091 48.627 90.8523 47.2838 90.8523 45.627C90.8523 44.1082 90.8523 42.5837 90.8523 41.0449C90.8523 39.3881 89.5092 38.0449 87.8523 38.0449C86.5749 38.0449 85.2928 38.0449 84.0002 38.0449ZM29.1564 57.6973C27.4995 57.6973 26.1563 59.0404 26.1563 60.6973C26.1563 62.216 26.1563 63.7405 26.1563 65.2793C26.1563 66.9361 27.4995 68.2793 29.1563 68.2793C30.4337 68.2793 31.7158 68.2793 33.0085 68.2793C34.6653 68.2793 36.0085 66.9362 36.0085 65.2793C36.0085 63.7605 36.0085 62.2361 36.0085 60.6973C36.0085 59.0404 34.6654 57.6973 33.0085 57.6973C31.7311 57.6973 30.449 57.6973 29.1564 57.6973ZM47.5471 57.6973C45.8902 57.6973 44.5471 59.0404 44.5471 60.6973C44.5471 62.216 44.5471 63.7405 44.5471 65.2793C44.5471 66.9361 45.8902 68.2793 47.5471 68.2793C48.7159 68.2793 49.8888 68.2793 51.0708 68.2793C52.7277 68.2793 54.0708 66.9362 54.0708 65.2793C54.0708 63.7605 54.0708 62.2361 54.0708 60.6973C54.0708 59.0404 52.7277 57.6973 51.0709 57.6973C49.902 57.6973 48.7291 57.6973 47.5471 57.6973ZM65.9378 57.6973C64.281 57.6973 62.9378 59.0404 62.9378 60.6973C62.9378 62.216 62.9378 63.7405 62.9378 65.2793C62.9378 66.9361 64.2809 68.2793 65.9378 68.2793C67.1066 68.2793 68.2796 68.2793 69.4616 68.2793C71.1184 68.2793 72.4616 66.9362 72.4616 65.2793C72.4616 63.7605 72.4616 62.2361 72.4616 60.6973C72.4616 59.0404 71.1184 57.6973 69.4616 57.6973C68.2928 57.6973 67.1198 57.6973 65.9378 57.6973ZM84.0002 57.6973C82.3433 57.6973 81.0001 59.0404 81.0001 60.6973C81.0001 62.216 81.0001 63.7405 81.0001 65.2793C81.0001 66.9361 82.3433 68.2793 84.0001 68.2793C85.2775 68.2793 86.5596 68.2793 87.8523 68.2793C89.5091 68.2793 90.8523 66.9362 90.8523 65.2793C90.8523 63.7605 90.8523 62.2361 90.8523 60.6973C90.8523 59.0404 89.5092 57.6973 87.8523 57.6973C86.5749 57.6973 85.2928 57.6973 84.0002 57.6973ZM29.1564 77.6016C27.4995 77.6016 26.1563 78.9447 26.1563 80.6016C26.1563 82.1203 26.1563 83.6448 26.1563 85.1836C26.1563 86.8404 27.4995 88.1836 29.1563 88.1836C30.4337 88.1836 31.7158 88.1836 33.0085 88.1836C34.6653 88.1836 36.0085 86.8405 36.0085 85.1836C36.0085 83.6648 36.0085 82.1404 36.0085 80.6016C36.0085 78.9447 34.6654 77.6016 33.0085 77.6016C31.7311 77.6016 30.449 77.6016 29.1564 77.6016ZM47.5471 77.6016C45.8902 77.6016 44.5471 78.9447 44.5471 80.6016C44.5471 82.1203 44.5471 83.6448 44.5471 85.1836C44.5471 86.8404 45.8902 88.1836 47.5471 88.1836C48.7159 88.1836 49.8888 88.1836 51.0708 88.1836C52.7277 88.1836 54.0708 86.8405 54.0708 85.1836C54.0708 83.6648 54.0708 82.1404 54.0708 80.6016C54.0708 78.9447 52.7277 77.6016 51.0709 77.6016C49.902 77.6016 48.7291 77.6016 47.5471 77.6016ZM65.9378 77.6016C64.281 77.6016 62.9378 78.9447 62.9378 80.6016C62.9378 82.1203 62.9378 83.6448 62.9378 85.1836C62.9378 86.8404 64.2809 88.1836 65.9378 88.1836C67.1066 88.1836 68.2796 88.1836 69.4616 88.1836C71.1184 88.1836 72.4616 86.8405 72.4616 85.1836C72.4616 83.6648 72.4616 82.1404 72.4616 80.6016C72.4616 78.9447 71.1184 77.6016 69.4616 77.6016C68.2928 77.6016 67.1198 77.6016 65.9378 77.6016ZM84.0002 77.6016C82.3433 77.6016 81.0001 78.9447 81.0001 80.6016C81.0001 82.1203 81.0001 83.6448 81.0001 85.1836C81.0001 86.8404 82.3433 88.1836 84.0001 88.1836C85.2775 88.1836 86.5596 88.1836 87.8523 88.1836C89.5091 88.1836 90.8523 86.8405 90.8523 85.1836C90.8523 83.6648 90.8523 82.1404 90.8523 80.6016C90.8523 78.9447 89.5092 77.6016 87.8523 77.6016C86.5749 77.6016 85.2928 77.6016 84.0002 77.6016Z" fill="black"/>
<path d="M114.674 33.9903C114.674 32.3335 116.017 30.9902 117.674 30.9902C129.033 30.9902 140.414 30.9902 152.068 30.9902C153.724 30.9902 155.068 32.3334 155.068 33.9902C155.068 65.3344 155.068 96.707 155.068 129C141.738 129 128.408 129 114.674 129C114.674 97.6283 114.674 66.2565 114.674 33.9903ZM133.437 45.0996C131.78 45.0996 130.437 46.4427 130.437 48.0996C130.437 49.6184 130.437 51.1428 130.437 52.6816C130.437 54.3385 131.78 55.6816 133.437 55.6816C134.606 55.6816 135.779 55.6816 136.961 55.6816C138.618 55.6816 139.961 54.3385 139.961 52.6817C139.961 51.1629 139.961 49.6384 139.961 48.0996C139.961 46.4428 138.618 45.0996 136.961 45.0996C135.792 45.0996 134.619 45.0996 133.437 45.0996ZM133.437 64.752C131.78 64.752 130.437 66.0951 130.437 67.7519C130.437 69.2707 130.437 70.7952 130.437 72.334C130.437 73.9908 131.78 75.334 133.437 75.334C134.606 75.334 135.779 75.334 136.961 75.334C138.618 75.334 139.961 73.9909 139.961 72.334C139.961 70.8152 139.961 69.2908 139.961 67.752C139.961 66.0951 138.618 64.752 136.961 64.752C135.792 64.752 134.619 64.752 133.437 64.752ZM133.437 84.6562C131.78 84.6562 130.437 85.9994 130.437 87.6562C130.437 89.175 130.437 90.6995 130.437 92.2383C130.437 93.8951 131.78 95.2383 133.437 95.2383C134.606 95.2383 135.779 95.2383 136.961 95.2383C138.618 95.2383 139.961 93.8951 139.961 92.2383C139.961 90.7195 139.961 89.1951 139.961 87.6563C139.961 85.9994 138.618 84.6562 136.961 84.6562C135.792 84.6562 134.619 84.6562 133.437 84.6562ZM133.437 104.309C131.78 104.309 130.437 105.652 130.437 107.309C130.437 108.827 130.437 110.352 130.437 111.891C130.437 113.547 131.78 114.891 133.437 114.891C134.606 114.891 135.779 114.891 136.961 114.891C138.618 114.891 139.961 113.547 139.961 111.891C139.961 110.372 139.961 108.847 139.961 107.309C139.961 105.652 138.618 104.309 136.961 104.309C135.792 104.309 134.619 104.309 133.437 104.309Z" fill="black"/>
<path d="M49.2734 103.829C54.6868 103.829 60.1003 103.829 65.6777 103.829C65.6777 112.136 65.6777 120.442 65.6777 129C60.2643 129 54.8509 129 49.2734 129C49.2734 120.694 49.2734 112.387 49.2734 103.829Z" fill="black"/>
</g>
<defs>
<clipPath id="clip0_4189_3679">
<rect width="168.144" height="129" fill="white" transform="translate(0.0605469)"/>
</clipPath>
</defs>
</svg>
