<svg width="69" height="63" viewBox="0 0 69 63" fill="none" xmlns="http://www.w3.org/2000/svg">
<path d="M57.5 34.125C57.5 47.25 47.4375 53.8125 35.4775 57.6187C34.8512 57.8125 34.1709 57.8032 33.5513 57.5925C21.5625 53.8125 11.5 47.25 11.5 34.125V15.75C11.5 15.0538 11.8029 14.3861 12.3421 13.8938C12.8812 13.4015 13.6125 13.125 14.375 13.125C20.125 13.125 27.3125 9.97496 32.315 5.98496C32.9241 5.50983 33.6989 5.24878 34.5 5.24878C35.3011 5.24878 36.0759 5.50983 36.685 5.98496C41.7163 10.0012 48.875 13.125 54.625 13.125C55.3875 13.125 56.1188 13.4015 56.6579 13.8938C57.1971 14.3861 57.5 15.0538 57.5 15.75V34.125Z" stroke="#A28513" stroke-width="2" stroke-linecap="round" stroke-linejoin="round"/>
<path d="M25.875 31.5L31.625 36.75L43.125 26.25" stroke="#A28513" stroke-width="2" stroke-linecap="round" stroke-linejoin="round"/>
</svg>
