<svg width="168" height="156" viewBox="0 0 168 156" fill="none" xmlns="http://www.w3.org/2000/svg">
<g clip-path="url(#clip0_4189_3687)">
<path d="M85.3122 5.57829e-06C86.8841 0.733063 88.2842 1.69654 89.697 2.66364C92.1362 4.31572 94.7227 5.52639 97.4528 6.70313C97.6919 6.80736 97.931 6.91159 98.1773 7.01898C108.141 11.3098 119.088 12.758 129.937 11.2734C130.155 11.244 130.372 11.2146 130.596 11.1843C135.154 10.5425 139.517 9.26794 143.78 7.65528C145.411 7.06244 146.572 6.71922 148.312 7.00782C149.467 7.82912 150.027 8.43457 150.281 9.75001C150.31 10.215 150.323 10.681 150.323 11.1468C150.324 11.4274 150.325 11.7079 150.326 11.997C150.326 12.3041 150.325 12.6113 150.325 12.9277C150.326 13.2549 150.326 13.582 150.327 13.9191C150.329 15.0191 150.329 16.1191 150.329 17.2191C150.33 18.0063 150.331 18.7935 150.332 19.5807C150.335 21.4998 150.336 23.4188 150.336 25.3379C150.336 26.8986 150.337 28.4593 150.338 30.02C150.341 34.4471 150.342 38.8741 150.342 43.3011C150.342 43.6592 150.342 43.6592 150.342 44.0244C150.342 44.2634 150.342 44.5024 150.342 44.7487C150.342 48.6179 150.345 52.4871 150.349 56.3564C150.354 60.3314 150.356 64.3064 150.356 68.2814C150.356 70.5122 150.357 72.7429 150.36 74.9737C150.364 77.0731 150.364 79.1726 150.361 81.272C150.361 82.0415 150.362 82.811 150.364 83.5805C150.366 84.6333 150.365 85.6861 150.362 86.7389C150.364 87.0413 150.365 87.3437 150.367 87.6553C150.305 99.5074 139.961 110.688 132.051 119.229C131.561 119.761 131.075 120.296 130.59 120.832C128.859 122.738 127.102 124.571 125.163 126.3C124.497 126.925 123.884 127.56 123.268 128.226C122.121 129.454 120.89 130.564 119.601 131.663C119.139 132.061 118.676 132.46 118.213 132.858C117.98 133.058 117.748 133.257 117.508 133.463C116.836 134.042 116.169 134.625 115.504 135.21C113.17 137.258 110.8 139.218 108.281 141.07C107.903 141.354 107.526 141.637 107.149 141.921C102.001 145.791 96.6961 149.353 91.1425 152.708C90.5764 153.051 90.0116 153.395 89.4487 153.742C88.7919 154.146 88.1303 154.541 87.4655 154.934C87.114 155.144 86.7625 155.355 86.4004 155.572C84.9723 156.134 83.885 156.293 82.3591 156C81.1425 155.494 80.0733 154.832 78.9753 154.134C78.6634 153.942 78.3514 153.751 78.0301 153.553C77.0611 152.954 76.1 152.346 75.1403 151.734C74.8419 151.546 74.5435 151.357 74.2361 151.163C70.8451 149.014 67.5298 146.79 64.3122 144.422C64.0356 144.22 63.7589 144.019 63.4739 143.811C60.2819 141.468 57.1822 139.009 54.1403 136.5C53.8738 136.281 53.6074 136.062 53.3328 135.836C51.8981 134.648 50.5015 133.443 49.1571 132.167C48.572 131.634 47.9657 131.142 47.3407 130.65C45.9262 129.507 44.6467 128.274 43.3737 126.998C43.0323 126.658 43.0323 126.658 42.6841 126.311C42.2281 125.856 41.7728 125.401 41.3181 124.945C40.7633 124.389 40.2065 123.834 39.649 123.281C37.7167 121.353 35.8967 119.36 34.1247 117.305C33.8182 116.957 33.5114 116.609 33.2044 116.261C28.2663 110.641 23.674 104.613 20.3024 98.0522C20.1862 97.8265 20.0701 97.6007 19.9503 97.368C18.2419 93.9125 17.6688 90.6638 17.6724 86.8917C17.6714 86.5629 17.6704 86.2341 17.6694 85.8953C17.6666 84.7953 17.6661 83.6953 17.6656 82.5953C17.664 81.806 17.6624 81.0166 17.6606 80.2273C17.6562 78.0845 17.6542 75.9416 17.6527 73.7988C17.6518 72.4603 17.6505 71.1218 17.649 69.7833C17.645 66.0754 17.6416 62.3675 17.6405 58.6596C17.6404 58.304 17.6404 58.304 17.6403 57.9413C17.6402 57.7037 17.6401 57.4662 17.6401 57.2214C17.6399 56.74 17.6398 56.2586 17.6396 55.7772C17.6395 55.5384 17.6395 55.2996 17.6394 55.0535C17.6381 51.1816 17.6324 47.3096 17.6247 43.4376C17.6169 39.4598 17.6129 35.4821 17.6125 31.5043C17.6122 29.2718 17.6103 27.0394 17.6043 24.807C17.5988 22.7083 17.5982 20.6096 17.6011 18.5109C17.6013 17.7404 17.5999 16.9699 17.5967 16.1994C17.5925 15.1482 17.5944 14.0971 17.5979 13.0459C17.5952 12.7405 17.5926 12.4352 17.5898 12.1207C17.6031 10.3882 17.7786 9.13761 18.7028 7.61719C19.9328 6.85577 20.8887 6.84693 22.3122 7.00782C23.2639 7.25985 24.1538 7.61264 25.0602 7.97901C39.1499 13.3416 54.7283 12.9766 68.7584 7.60127C73.3326 5.76487 77.3656 3.39104 81.4106 0.704595C82.6728 -0.109033 83.8102 -0.274407 85.3122 5.57829e-06ZM81.3747 20.7188C71.0602 27.1342 59.622 29.7924 47.3617 27.5784C44.8935 27.0756 42.5148 26.2888 40.1399 25.4973C39.7656 25.3783 39.3912 25.2593 39.0056 25.1367C38.6799 25.0267 38.3542 24.9168 38.0186 24.8035C36.7553 24.6373 36.1658 24.96 35.1091 25.5938C34.292 26.7319 34.3575 27.6154 34.3607 28.9331C34.3587 29.183 34.3568 29.4329 34.3547 29.6904C34.349 30.5309 34.3481 31.3714 34.3471 32.212C34.344 32.8136 34.3407 33.4152 34.3372 34.0168C34.3286 35.6544 34.3244 37.292 34.3214 38.9296C34.3195 39.9539 34.3168 40.9782 34.3139 42.0026C34.3049 45.2107 34.2986 48.4188 34.296 51.6269C34.2931 55.3236 34.2816 59.02 34.2626 62.7166C34.2483 65.577 34.2418 68.4373 34.2409 71.2978C34.2402 73.0043 34.2364 74.7107 34.2246 76.4172C34.2137 78.0261 34.2124 79.6347 34.2181 81.2436C34.2186 81.8307 34.2158 82.4177 34.2093 83.0048C34.157 88.0018 35.3331 91.8677 38.1442 96.167C38.299 96.409 38.4538 96.651 38.6133 96.9004C40.0526 99.1189 41.6221 101.23 43.3122 103.289C43.5252 103.55 43.5252 103.55 43.7425 103.816C46.5658 107.252 49.4977 110.67 52.8543 113.672C53.4515 114.228 53.998 114.801 54.5441 115.399C55.7552 116.693 57.0549 117.871 58.4059 119.038C58.648 119.248 58.89 119.458 59.1394 119.674C62.7908 122.824 66.5396 125.824 70.5466 128.578C70.8731 128.804 70.8731 128.804 71.2062 129.035C74.0073 130.969 76.8561 132.837 79.7751 134.615C80.0274 134.774 80.2798 134.933 80.5398 135.097C81.8909 135.902 83.0148 136.461 84.6497 136.348C86.0011 136.037 87.0841 135.333 88.2243 134.615C88.4939 134.45 88.7634 134.286 89.0412 134.117C89.8824 133.599 90.7156 133.071 91.5466 132.539C91.8036 132.375 92.0606 132.21 92.3254 132.041C95.9207 129.721 99.3477 127.227 102.703 124.617C102.897 124.467 103.092 124.317 103.292 124.162C108.147 120.399 112.683 116.377 116.949 112.042C117.389 111.596 117.835 111.154 118.282 110.713C120.615 108.386 122.643 105.835 124.687 103.289C124.911 103.013 124.911 103.013 125.14 102.732C126.852 100.621 128.402 98.4386 129.855 96.167C130.07 95.8389 130.07 95.8389 130.289 95.5042C133.041 91.0954 133.838 87.2386 133.786 82.2083C133.787 81.6067 133.789 81.005 133.791 80.4034C133.796 78.7851 133.789 77.167 133.779 75.5487C133.77 73.85 133.772 72.1514 133.772 70.4528C133.771 67.6051 133.763 64.7575 133.749 61.9098C133.734 58.6182 133.729 55.3267 133.729 52.035C133.73 48.5239 133.723 45.0128 133.714 41.5017C133.712 40.4915 133.711 39.4813 133.711 38.4711C133.71 36.8862 133.704 35.3014 133.694 33.7166C133.691 33.135 133.69 32.5534 133.69 31.9718C133.691 31.1787 133.685 30.3857 133.678 29.5926C133.68 29.362 133.681 29.1315 133.683 28.894C133.663 27.5386 133.47 26.6671 132.562 25.5938C131.418 24.8851 130.84 24.9366 129.508 25.1034C128.51 25.3131 127.623 25.6336 126.676 25.9937C118.594 29.0469 109.084 29.2583 100.734 27.1172C100.513 27.0618 100.293 27.0063 100.065 26.9492C95.5025 25.7667 91.3331 23.7623 87.4617 21.2555C87.1855 21.0784 86.9093 20.9013 86.6247 20.7188C86.2256 20.4578 86.2256 20.4578 85.8185 20.1915C84.0881 19.3893 82.8954 19.7303 81.3747 20.7188Z" fill="black"/>
<path d="M84.2761 31.3025C85.3176 31.8056 86.3439 32.3274 87.3658 32.8617C98.3987 38.5053 110.533 39.5095 122.774 36.7456C123.099 36.6722 123.425 36.5989 123.76 36.5232C124.006 36.4676 124.252 36.412 124.505 36.3547C124.562 42.8871 124.605 49.4196 124.632 55.9522C124.644 58.9857 124.662 62.0192 124.69 65.0527C124.714 67.6983 124.73 70.3439 124.735 72.9896C124.738 74.389 124.746 75.7882 124.764 77.1876C124.78 78.5081 124.785 79.8282 124.782 81.1488C124.782 81.6303 124.787 82.1118 124.797 82.5932C124.861 86.0704 124.069 88.4468 122.061 91.4206C121.876 91.6971 121.691 91.9735 121.501 92.2583C121.033 92.9403 120.542 93.6024 120.037 94.263C119.856 94.5031 119.674 94.7432 119.488 94.9906C116.892 98.3891 114.1 101.641 110.94 104.633C110.323 105.224 109.73 105.821 109.141 106.434C107.96 107.651 106.705 108.793 105.429 109.93C105.212 110.126 104.994 110.322 104.77 110.525C103.353 111.793 101.888 112.991 100.369 114.159C100.035 114.423 99.7008 114.686 99.3669 114.95C96.7451 117.004 94.031 118.913 91.2039 120.734C90.9241 120.916 90.6444 121.097 90.3561 121.283C89.4526 121.865 88.5438 122.439 87.6332 123.012C87.3445 123.197 87.0558 123.383 86.7584 123.574C86.4851 123.743 86.2118 123.913 85.9302 124.087C85.6877 124.24 85.4452 124.393 85.1954 124.55C84.2986 124.92 83.8818 124.839 82.955 124.57C78.3706 122.302 74.0516 119.304 70.1101 116.229C69.2389 115.554 68.3492 114.907 67.45 114.262C65.8931 113.126 64.4902 111.89 63.0964 110.598C62.1976 109.786 61.2904 108.983 60.3802 108.181C57.982 106.063 55.6808 103.953 53.6254 101.557C53.2937 101.185 52.9615 100.813 52.6289 100.441C49.0328 96.3972 46.0046 92.2649 43.5433 87.5852C43.4425 87.4044 43.3417 87.2236 43.2378 87.0373C43.2087 86.3713 43.198 85.7133 43.2011 85.0473C43.2008 84.8399 43.2006 84.6324 43.2003 84.4187C43.1998 83.72 43.2015 83.0213 43.2031 82.3226C43.2032 81.8232 43.2032 81.3238 43.203 80.8243C43.2029 79.4654 43.2047 78.1064 43.2068 76.7474C43.2087 75.3284 43.2089 73.9094 43.2093 72.4904C43.2102 69.8018 43.2128 67.1132 43.2158 64.4247C43.2192 61.3645 43.2209 58.3042 43.2224 55.244C43.2256 48.9476 43.231 42.6511 43.2378 36.3547C43.5828 36.4282 43.9279 36.5018 44.2833 36.5776C44.7467 36.6759 45.2102 36.7743 45.6736 36.8727C45.8997 36.9209 46.1258 36.9692 46.3588 37.0189C58.0281 39.4917 70.3831 38.4836 80.7613 32.7606C81.4846 32.3332 82.1919 31.8939 82.8857 31.4288C83.566 31.1495 83.566 31.1495 84.2761 31.3025Z" fill="black"/>
</g>
<defs>
<clipPath id="clip0_4189_3687">
<rect width="168" height="156" fill="white"/>
</clipPath>
</defs>
</svg>
