<svg width="169" height="129" viewBox="0 0 169 129" fill="none" xmlns="http://www.w3.org/2000/svg">
<g clip-path="url(#clip0_4052_234)">
<path d="M85.7188 -9.77949e-05C87.292 0.606085 88.6934 1.40281 90.1074 2.20252C92.5487 3.56867 95.1374 4.5698 97.8698 5.54287C98.1091 5.62906 98.3484 5.71525 98.595 5.80405C108.567 9.35223 119.524 10.5498 130.382 9.32217C130.6 9.29785 130.817 9.27353 131.041 9.24848C135.603 8.71775 139.97 7.66377 144.237 6.33022C145.869 5.83999 147.031 5.55618 148.773 5.79482C149.929 6.47398 150.489 6.97464 150.743 8.0624C150.772 8.44693 150.785 8.83229 150.785 9.21747C150.787 9.44947 150.788 9.68146 150.789 9.92049C150.788 10.1745 150.788 10.4285 150.787 10.6901C150.788 10.9607 150.789 11.2312 150.789 11.5099C150.791 12.4195 150.791 13.3291 150.791 14.2388C150.792 14.8897 150.793 15.5407 150.794 16.1917C150.797 17.7786 150.798 19.3655 150.798 20.9524C150.798 22.243 150.799 23.5336 150.8 24.8241C150.803 28.485 150.804 32.1458 150.804 35.8066C150.804 36.1027 150.804 36.1027 150.804 36.4047C150.804 36.6024 150.804 36.8 150.804 37.0036C150.804 40.2032 150.807 43.4027 150.812 46.6023C150.816 49.8893 150.819 53.1763 150.818 56.4634C150.818 58.308 150.819 60.1527 150.823 61.9974C150.826 63.7335 150.826 65.4695 150.824 67.2056C150.823 67.8419 150.824 68.4782 150.826 69.1145C150.828 69.9851 150.827 70.8557 150.824 71.7263C150.826 71.9764 150.828 72.2264 150.83 72.4841C150.767 82.2848 140.414 91.5306 132.498 98.5928C132.007 99.0328 131.521 99.4756 131.035 99.919C129.303 101.495 127.545 103.011 125.603 104.44C124.937 104.957 124.323 105.482 123.707 106.033C122.559 107.049 121.327 107.966 120.037 108.875C119.574 109.204 119.111 109.534 118.648 109.863C118.415 110.028 118.182 110.194 117.942 110.364C117.27 110.842 116.602 111.324 115.936 111.808C113.6 113.502 111.229 115.122 108.707 116.654C108.329 116.888 107.952 117.123 107.574 117.358C102.422 120.558 97.1125 123.503 91.5541 126.278C90.9876 126.561 90.4222 126.846 89.8589 127.133C89.2015 127.466 88.5393 127.794 87.874 128.118C87.5222 128.292 87.1704 128.466 86.8079 128.646C85.3787 129.111 84.2904 129.242 82.7632 129C81.5456 128.582 80.4754 128.034 79.3765 127.457C79.0643 127.298 78.7521 127.14 78.4305 126.977C77.4607 126.481 76.4987 125.978 75.5382 125.473C75.2396 125.317 74.9409 125.161 74.6332 125C71.2393 123.223 67.9212 121.384 64.7008 119.426C64.424 119.259 64.1471 119.092 63.8619 118.921C60.6671 116.983 57.5647 114.95 54.5203 112.875C54.2535 112.694 53.9868 112.512 53.7121 112.326C52.2761 111.343 50.8783 110.347 49.5327 109.292C48.9471 108.851 48.3403 108.445 47.7148 108.038C46.2991 107.093 45.0185 106.073 43.7444 105.017C43.4028 104.736 43.4028 104.736 43.0542 104.449C42.5978 104.073 42.1421 103.697 41.6871 103.32C41.1318 102.86 40.5745 102.401 40.0165 101.943C38.0826 100.35 36.261 98.7015 34.4875 97.0018C34.1807 96.714 33.8737 96.4263 33.5664 96.1387C28.624 91.4918 24.0278 86.5067 20.6534 81.0816C20.5371 80.8949 20.4208 80.7081 20.301 80.5158C18.5911 77.6583 18.0175 74.9719 18.0211 71.8526C18.0201 71.5807 18.0191 71.3088 18.0181 71.0287C18.0153 70.1191 18.0148 69.2095 18.0143 68.2999C18.0127 67.6471 18.0111 66.9944 18.0093 66.3417C18.0049 64.5698 18.0029 62.7978 18.0014 61.0258C18.0005 59.919 17.9991 58.8122 17.9977 57.7053C17.9937 54.6392 17.9903 51.573 17.9892 48.5069C17.9891 48.2129 17.9891 48.2129 17.9889 47.9129C17.9889 47.7165 17.9888 47.52 17.9887 47.3176C17.9886 46.9195 17.9884 46.5214 17.9883 46.1233C17.9882 45.9259 17.9881 45.7284 17.9881 45.5249C17.9868 42.3231 17.981 39.1213 17.9734 35.9195C17.9656 32.6301 17.9615 29.3408 17.9611 26.0515C17.9608 24.2055 17.9589 22.3594 17.953 20.5134C17.9474 18.7779 17.9468 17.0425 17.9497 15.307C17.95 14.6698 17.9486 14.0327 17.9453 13.3956C17.9412 12.5263 17.9431 11.6571 17.9465 10.7878C17.9438 10.5353 17.9412 10.2829 17.9385 10.0228C17.9517 8.59014 18.1274 7.556 19.0524 6.29873C20.2834 5.66909 21.2401 5.66178 22.6649 5.79482C23.6173 6.00323 24.508 6.29496 25.4153 6.59792C39.517 11.0324 55.1087 10.7305 69.1508 6.28557C73.7289 4.767 77.7654 2.80402 81.8139 0.582544C83.0771 -0.0902644 84.2155 -0.227016 85.7188 -9.77949e-05ZM81.7779 17.1327C71.4546 22.4378 60.0067 24.6359 47.7358 22.8051C45.2655 22.3893 42.8848 21.7387 40.5078 21.0842C40.1332 20.9858 39.7585 20.8874 39.3725 20.786C39.0466 20.6951 38.7206 20.6042 38.3847 20.5105C37.1203 20.373 36.5304 20.6399 35.4727 21.164C34.6549 22.1051 34.7204 22.8357 34.7236 23.9253C34.7217 24.132 34.7197 24.3386 34.7177 24.5516C34.712 25.2466 34.711 25.9417 34.7101 26.6367C34.707 27.1342 34.7037 27.6317 34.7002 28.1292C34.6915 29.4833 34.6873 30.8375 34.6844 32.1917C34.6825 33.0387 34.6798 33.8857 34.6768 34.7328C34.6679 37.3857 34.6615 40.0385 34.659 42.6914C34.656 45.7482 34.6446 48.8049 34.6255 51.8617C34.6112 54.227 34.6047 56.5923 34.6038 58.9577C34.6031 60.3688 34.5993 61.7799 34.5875 63.1911C34.5766 64.5215 34.5753 65.8517 34.581 67.1821C34.5815 67.6676 34.5787 68.153 34.5722 68.6384C34.5198 72.7707 35.6969 75.9674 38.5105 79.5226C38.6654 79.7227 38.8203 79.9229 38.98 80.129C40.4205 81.9636 41.9913 83.7094 43.6829 85.412C43.8961 85.6275 43.8961 85.6275 44.1136 85.8474C46.9392 88.689 49.8737 91.5154 53.2332 93.9982C53.8308 94.4573 54.3778 94.9313 54.9243 95.4262C56.1365 96.4961 57.4373 97.47 58.7895 98.4348C59.0318 98.6085 59.274 98.7821 59.5236 98.961C63.1781 101.566 66.9301 104.046 70.9405 106.324C71.2673 106.511 71.2673 106.511 71.6007 106.702C74.4042 108.301 77.2555 109.846 80.177 111.316C80.4295 111.447 80.6821 111.579 80.9423 111.714C82.2946 112.38 83.4195 112.843 85.0558 112.749C86.4083 112.492 87.4922 111.91 88.6334 111.316C88.9032 111.18 89.173 111.044 89.451 110.904C90.293 110.476 91.1268 110.039 91.9585 109.6C92.2158 109.464 92.473 109.328 92.738 109.188C96.3364 107.269 99.7663 105.207 103.124 103.049C103.319 102.924 103.513 102.8 103.714 102.672C108.573 99.5603 113.113 96.2351 117.383 92.65C117.823 92.281 118.27 91.9158 118.717 91.5514C121.052 89.6264 123.081 87.5175 125.128 85.412C125.352 85.1839 125.352 85.1839 125.581 84.9512C127.294 83.2058 128.845 81.4011 130.3 79.5226C130.515 79.2513 130.515 79.2513 130.734 78.9745C133.488 75.3288 134.286 72.1395 134.234 67.9798C134.235 67.4823 134.237 66.9848 134.24 66.4874C134.244 65.1491 134.237 63.8111 134.227 62.4728C134.218 61.0682 134.22 59.6636 134.22 58.2589C134.219 55.9041 134.211 53.5494 134.197 51.1945C134.182 48.4726 134.177 45.7508 134.177 43.0289C134.178 40.1254 134.171 37.222 134.162 34.3186C134.16 33.4832 134.159 32.6479 134.159 31.8125C134.158 30.5019 134.152 29.1915 134.142 27.8809C134.139 27.4 134.138 26.9191 134.138 26.4381C134.139 25.7822 134.133 25.1265 134.126 24.4707C134.128 24.2801 134.129 24.0894 134.131 23.893C134.111 22.7722 133.918 22.0515 133.009 21.164C131.864 20.578 131.286 20.6206 129.952 20.7585C128.954 20.9319 128.066 21.197 127.119 21.4947C119.03 24.0194 109.511 24.1943 101.154 22.4237C100.933 22.3779 100.712 22.3321 100.484 22.2848C95.9179 21.3069 91.7449 19.6495 87.8701 17.5766C87.5937 17.4301 87.3173 17.2836 87.0324 17.1327C86.633 16.9169 86.633 16.9169 86.2255 16.6967C84.4936 16.0334 83.2999 16.3153 81.7779 17.1327Z" fill="white" fill-opacity="0.3"/>
<path d="M84.6814 25.8848C85.7238 26.3008 86.751 26.7323 87.7738 27.1742C98.816 31.841 110.961 32.6713 123.212 30.3859C123.538 30.3252 123.864 30.2645 124.199 30.202C124.445 30.156 124.691 30.11 124.945 30.0626C125.002 35.4644 125.045 40.8662 125.072 46.2682C125.084 48.7767 125.101 51.2851 125.129 53.7936C125.154 55.9813 125.17 58.169 125.175 60.3568C125.178 61.5141 125.186 62.6711 125.204 63.8283C125.22 64.9202 125.225 66.0119 125.222 67.1039C125.222 67.502 125.227 67.9002 125.237 68.2983C125.302 71.1737 124.508 73.1387 122.499 75.5979C122.314 75.8265 122.129 76.0551 121.938 76.2906C121.469 76.8546 120.978 77.4021 120.473 77.9483C120.291 78.1468 120.11 78.3454 119.923 78.55C117.325 81.3603 114.531 84.0495 111.368 86.5233C110.75 87.0118 110.157 87.506 109.568 88.0127C108.385 89.0189 107.129 89.9632 105.853 90.9038C105.635 91.066 105.417 91.2282 105.193 91.3954C103.775 92.4441 102.309 93.4347 100.788 94.401C100.454 94.6188 100.119 94.8368 99.7851 95.055C97.161 96.7537 94.4446 98.3318 91.6151 99.8381C91.3351 99.9879 91.0551 100.138 90.7666 100.292C89.8623 100.773 88.9528 101.248 88.0413 101.721C87.7524 101.875 87.4635 102.028 87.1658 102.186C86.8923 102.326 86.6187 102.466 86.3369 102.611C86.0942 102.737 85.8515 102.863 85.6015 102.993C84.7039 103.299 84.2868 103.232 83.3591 103.01C78.7708 101.135 74.4482 98.6556 70.5033 96.1125C69.6313 95.5544 68.7409 95.019 67.8409 94.486C66.2826 93.5469 64.8786 92.5246 63.4835 91.456C62.584 90.7848 61.676 90.1203 60.765 89.4578C58.3647 87.7063 56.0616 85.9611 54.0044 83.98C53.6725 83.672 53.34 83.3644 53.0071 83.057C49.4079 79.7132 46.3771 76.296 43.9137 72.4263C43.8128 72.2768 43.7119 72.1272 43.608 71.9732C43.5788 71.4225 43.5682 70.8783 43.5712 70.3276C43.5709 70.1561 43.5707 69.9846 43.5704 69.8078C43.5699 69.23 43.5716 68.6523 43.5733 68.0745C43.5733 67.6615 43.5733 67.2485 43.5731 66.8356C43.573 65.7118 43.5748 64.588 43.577 63.4643C43.5789 62.2909 43.5791 61.1174 43.5794 59.944C43.5804 57.7208 43.5829 55.4975 43.5859 53.2743C43.5894 50.7437 43.591 48.2132 43.5926 45.6826C43.5958 40.4759 43.6012 35.2693 43.608 30.0626C43.9533 30.1234 44.2986 30.1842 44.6544 30.2469C45.1182 30.3282 45.582 30.4096 46.0458 30.4909C46.2721 30.5308 46.4985 30.5707 46.7316 30.6118C58.4109 32.6567 70.7765 31.8231 81.1636 27.0905C81.8875 26.7371 82.5954 26.3739 83.2898 25.9892C83.9707 25.7583 83.9707 25.7583 84.6814 25.8848Z" fill="white" fill-opacity="0.3"/>
</g>
<defs>
<clipPath id="clip0_4052_234">
<rect width="168.144" height="129" fill="white" transform="translate(0.333496)"/>
</clipPath>
</defs>
</svg>
