<svg width="64" height="56" viewBox="0 0 64 56" fill="none" xmlns="http://www.w3.org/2000/svg">
<path d="M32 39.6666V49" stroke="#A28513" stroke-width="2" stroke-linecap="round" stroke-linejoin="round"/>
<path d="M38.1467 17.57L40.6081 16.6787" stroke="#A28513" stroke-width="2" stroke-linecap="round" stroke-linejoin="round"/>
<path d="M40.6081 11.3213L38.1467 10.4276" stroke="#A28513" stroke-width="2" stroke-linecap="round" stroke-linejoin="round"/>
<path d="M44.9386 7.53198L43.9172 5.37598" stroke="#A28513" stroke-width="2" stroke-linecap="round" stroke-linejoin="round"/>
<path d="M44.9386 20.468L43.9172 22.6217" stroke="#A28513" stroke-width="2" stroke-linecap="round" stroke-linejoin="round"/>
<path d="M51.0613 7.53198L52.0826 5.37598" stroke="#A28513" stroke-width="2" stroke-linecap="round" stroke-linejoin="round"/>
<path d="M52.0799 22.624L51.0613 20.468" stroke="#A28513" stroke-width="2" stroke-linecap="round" stroke-linejoin="round"/>
<path d="M55.3921 11.3213L57.8561 10.4276" stroke="#A28513" stroke-width="2" stroke-linecap="round" stroke-linejoin="round"/>
<path d="M55.3921 16.6787L57.8561 17.5724" stroke="#A28513" stroke-width="2" stroke-linecap="round" stroke-linejoin="round"/>
<path d="M58.6666 30.3333V35C58.6666 36.2377 58.1047 37.4247 57.1045 38.2998C56.1043 39.175 54.7477 39.6667 53.3332 39.6667H10.6666C9.2521 39.6667 7.89554 39.175 6.89535 38.2998C5.89515 37.4247 5.33325 36.2377 5.33325 35V11.6667C5.33325 10.429 5.89515 9.242 6.89535 8.36683C7.89554 7.49167 9.2521 7 10.6666 7H29.3333" stroke="#A28513" stroke-width="2" stroke-linecap="round" stroke-linejoin="round"/>
<path d="M21.3333 49H42.6666" stroke="#A28513" stroke-width="2" stroke-linecap="round" stroke-linejoin="round"/>
<path d="M48 21C52.4183 21 56 17.866 56 14C56 10.134 52.4183 7 48 7C43.5817 7 40 10.134 40 14C40 17.866 43.5817 21 48 21Z" stroke="#A28513" stroke-width="2" stroke-linecap="round" stroke-linejoin="round"/>
</svg>
