<svg width="169" height="129" viewBox="0 0 169 129" fill="none" xmlns="http://www.w3.org/2000/svg">
<path d="M77.1201 12.015C77.3937 12.0136 77.6673 12.0122 77.9493 12.0107C80.3158 12.0325 80.3158 12.0325 81.4304 12.5977C82.2709 13.5242 82.1754 14.509 82.1618 15.5933C82.1619 15.7925 82.162 15.9917 82.1621 16.1969C82.1616 16.854 82.1565 17.5111 82.1513 18.1682C82.1501 18.6243 82.1492 19.0804 82.1485 19.5365C82.146 20.7361 82.1396 21.9356 82.1323 23.1351C82.1256 24.3596 82.1226 25.584 82.1193 26.8084C82.1122 29.2102 82.101 31.6119 82.0872 34.0137C81.8926 34.0482 81.698 34.0827 81.4974 34.1183C80.6012 34.278 79.7054 34.4391 78.8096 34.6003C78.5035 34.6545 78.1974 34.7088 77.8821 34.7647C67.6714 36.6088 58.7879 41.2616 53.1875 48.123C50.9707 50.9201 49.421 53.7964 48.2614 56.9414C48.1496 57.2253 48.0379 57.5091 47.9227 57.8016C45.3938 65.4726 47.7347 73.7348 52.8499 80.4508C58.2938 87.3237 67.3291 92.3232 77.4895 94.2305C78.2847 94.3643 79.0805 94.4959 79.8767 94.6258C80.2907 94.6934 80.7046 94.7611 81.1312 94.8308C81.4466 94.8821 81.7621 94.9334 82.0872 94.9863C82.1024 97.6298 82.1141 100.273 82.1212 102.917C82.1247 104.144 82.1293 105.372 82.1367 106.599C82.1439 107.784 82.1478 108.968 82.1495 110.152C82.1507 110.604 82.1531 111.056 82.1566 111.508C82.1614 112.141 82.1621 112.774 82.1618 113.407C82.1641 113.594 82.1665 113.781 82.1689 113.974C82.1641 114.902 82.1406 115.629 81.4304 116.402C80.0193 117.042 78.5277 116.994 76.9353 116.985C76.6721 116.984 76.4089 116.983 76.1377 116.982C72.7726 116.933 70.3148 116.314 67.781 114.56C66.0147 113.066 65.0868 111.844 64.497 109.899C64.4306 109.693 64.3643 109.487 64.296 109.275C64.0898 108.629 63.8921 107.981 63.6965 107.332C63.6306 107.117 63.5648 106.902 63.497 106.68C62.3828 103.022 62.3828 103.022 62.3828 102.041C61.9525 102.002 61.9525 102.002 61.5136 101.962C60.364 101.781 59.5833 101.471 58.5574 101.044C57.3619 100.651 56.7651 100.468 55.4988 100.733C54.4931 101.148 53.5818 101.609 52.6538 102.12C52.3389 102.281 52.0239 102.442 51.6994 102.608C51.0726 102.929 50.4489 103.254 49.8287 103.582C46.2631 105.44 43.2647 106.562 38.8762 105.955C35.2891 105.242 32.8729 103.188 30.3017 101.238C29.9984 101.016 29.695 100.793 29.3825 100.564C27.1409 98.8642 25.3566 97.1064 25.0664 94.6232C25.0652 94.277 25.0723 93.9308 25.0882 93.5848C25.0846 93.4142 25.081 93.2435 25.0773 93.0676C25.1264 90.4023 27.0562 88.2452 28.906 86.0892C29.3136 85.6074 29.7211 85.1254 30.1285 84.6434C30.3076 84.4339 30.4867 84.2243 30.6712 84.0083C31.7725 82.892 31.7725 82.892 32.0848 81.6062C31.9908 81.4331 31.8969 81.26 31.8 81.0817C31.7022 80.8887 31.6045 80.6958 31.5037 80.497C31.3983 80.2898 31.2929 80.0826 31.1843 79.8691C30.994 79.4033 30.8091 78.9361 30.6301 78.4676C30.5475 78.2543 30.465 78.0409 30.3799 77.821C30.3202 77.6655 30.2606 77.5099 30.1991 77.3496C29.6142 77.3121 29.6142 77.3121 29.0176 77.2738C26.8079 77.0838 24.6632 76.6864 22.502 76.2945C22.0887 76.2242 21.6753 76.1539 21.2494 76.0815C17.9207 75.478 14.9503 74.6907 12.9577 72.4365C12.6479 72.0975 12.6479 72.0975 12.3317 71.7515C11.2197 70.2627 11.0472 68.942 11.0412 67.2666C11.039 67.0504 11.0368 66.8342 11.0346 66.6115C11.0313 66.1556 11.0297 65.6997 11.0298 65.2437C11.0284 64.552 11.0164 63.8606 11.004 63.1689C11.0021 62.7239 11.0008 62.2788 11.0001 61.8338C10.9954 61.6298 10.9907 61.4258 10.9858 61.2156C11.0098 58.8869 12.3668 56.8549 14.4356 55.1777C16.8711 53.7326 19.5411 53.2091 22.502 52.7054C22.9167 52.6303 23.3314 52.5551 23.7586 52.4776C25.9045 52.0968 28.0039 51.7912 30.1991 51.6504C30.2588 51.4948 30.3184 51.3392 30.3799 51.179C30.4625 50.9656 30.545 50.7522 30.6301 50.5323C30.7101 50.3248 30.7901 50.1173 30.8725 49.9035C31.1843 49.1309 31.1843 49.1309 31.5138 48.6397C32.0729 47.7142 32.3061 47.1539 31.8441 46.1708C31.2863 45.4018 30.68 44.6777 30.0349 43.9501C29.8249 43.7008 29.6149 43.4515 29.3986 43.1947C28.797 42.482 28.1858 41.7748 27.5718 41.0684C25.9815 39.2291 25.1516 37.7474 25.1088 35.4939C25.0952 35.3218 25.0817 35.1496 25.0677 34.9723C25.0202 32.4933 26.8187 30.4569 28.9727 28.7158C29.4558 28.3391 29.9445 27.9678 30.4388 27.5996C30.9394 27.2256 31.4295 26.8447 31.9193 26.4625C34.6149 24.3957 37.3323 22.9246 41.2622 22.8647C41.5141 22.8583 41.766 22.8518 42.0255 22.8451C45.115 23.1053 47.5039 24.1518 50.0881 25.4158C51.042 25.8746 51.9965 26.3323 52.9546 26.7858C53.5265 27.0591 54.0928 27.3392 54.6518 27.6277C56.2247 28.3998 56.2247 28.3998 58.0597 28.263C58.4432 28.1081 58.8268 27.9532 59.2219 27.7936C61.3431 26.959 61.3431 26.959 62.3828 26.959C62.4193 26.778 62.4558 26.597 62.4933 26.4105C62.8927 24.4945 63.3981 22.6105 63.9838 20.7231C64.0638 20.4533 64.1438 20.1834 64.2263 19.9053C65.1163 17.0288 66.4314 14.8034 69.7874 13.1921C72.1821 12.174 74.4236 12.0287 77.1201 12.015Z" fill="black"/>
<path d="M82.0871 37.793C82.0871 55.4196 82.0871 73.0462 82.0871 91.207C77.4273 90.6112 77.4273 90.6112 75.2522 90.0417C75.0026 89.9767 74.7531 89.9118 74.4959 89.8448C70.5742 88.7814 67.1538 87.2743 64.0248 85.1602C63.6216 84.9049 63.6216 84.9049 63.2102 84.6444C56.4659 80.2484 52.6837 73.7099 51.8738 67.0195C51.1997 59.1189 54.1637 51.9956 60.9665 45.9657C66.0497 41.7861 74.4065 37.793 82.0871 37.793Z" fill="black"/>
<path d="M134.603 26.582C136.664 28.0289 137.733 29.797 137.926 31.9341C137.889 34.0156 136.932 35.7224 135.068 37.229C133.882 38.0603 132.888 38.4218 131.348 38.8008C131.351 38.9879 131.354 39.1751 131.357 39.3679C131.383 41.1325 131.403 42.897 131.416 44.6617C131.423 45.5689 131.432 46.476 131.447 47.3832C131.461 48.2588 131.469 49.1344 131.473 50.0101C131.476 50.5064 131.486 51.0027 131.497 51.4989C131.497 51.8015 131.497 52.1041 131.497 52.4158C131.5 52.6822 131.503 52.9485 131.506 53.2229C131.308 54.0925 130.918 54.3796 130.034 54.9258C129.201 55.2456 128.624 55.2087 127.69 55.208C127.154 55.2085 127.154 55.2085 126.607 55.2091C126.214 55.2082 125.82 55.2073 125.414 55.2063C125.001 55.2064 124.587 55.2064 124.162 55.2064C123.027 55.2065 121.891 55.205 120.756 55.2033C119.571 55.2017 118.385 55.2016 117.2 55.2013C114.954 55.2005 112.708 55.1984 110.462 55.1959C107.905 55.1931 105.349 55.1917 102.792 55.1904C97.5326 55.1878 92.2729 55.1833 87.0132 55.1777C87.0132 53.7643 87.0132 52.3508 87.0132 50.8945C99.8013 50.8945 112.589 50.8945 125.765 50.8945C125.657 46.9036 125.548 42.9127 125.437 38.8008C124.57 38.4682 123.703 38.1356 122.809 37.793C120.762 36.4693 119.692 34.9613 119.411 32.9389C119.284 30.6348 119.736 28.9282 121.781 27.1952C125.449 24.5673 130.586 24.1562 134.603 26.582Z" fill="black"/>
<path d="M87.0132 73.8223C92.5141 73.8106 98.0151 73.8016 103.516 73.7962C106.07 73.7936 108.624 73.79 111.178 73.7842C113.404 73.7792 115.631 73.776 117.857 73.7749C119.035 73.7742 120.214 73.7726 121.393 73.769C122.708 73.7649 124.024 73.7648 125.34 73.7651C125.731 73.7632 126.122 73.7614 126.526 73.7596C126.884 73.7603 127.242 73.761 127.611 73.7617C127.922 73.7612 128.234 73.7607 128.554 73.7603C129.437 73.8267 129.952 73.9546 130.691 74.3262C131.45 75.1996 131.428 75.5263 131.423 76.5555C131.422 77.0094 131.422 77.0094 131.422 77.4725C131.419 77.7993 131.416 78.1261 131.412 78.4627C131.411 78.8006 131.41 79.1384 131.409 79.4763C131.407 80.3648 131.4 81.2532 131.393 82.1417C131.386 83.0486 131.383 83.9555 131.38 84.8624C131.373 86.6414 131.362 88.4203 131.348 90.1992C131.811 90.3112 131.811 90.3112 132.284 90.4255C134.357 90.9818 136.085 92.2566 137.116 93.7423C138.095 95.7528 138.081 98.193 136.931 100.151C135.773 101.66 133.937 103.083 131.753 103.693C128.917 104.123 126.043 104.094 123.516 102.952C121.722 101.918 119.976 100.501 119.525 98.7656C119.238 96.1678 119.412 94.2033 121.557 92.1519C122.736 91.0871 123.604 90.9024 125.437 90.1992C125.545 86.2083 125.653 82.2173 125.765 78.1055C112.977 78.1055 100.189 78.1055 87.0132 78.1055C87.0132 76.692 87.0132 75.2786 87.0132 73.8223Z" fill="black"/>
<path d="M154.957 58.7474C156.715 59.7997 157.686 61.1148 158.277 62.7363C158.534 64.8412 158.624 66.7735 156.964 68.5313C156.733 68.7963 156.503 69.0613 156.266 69.3344C154.767 70.6451 152.302 71.4085 150.076 71.6147C147.564 71.6832 145.396 71.0964 143.232 70.1375C142.14 69.2278 140.543 67.8005 140.543 66.5156C122.878 66.5156 105.213 66.5156 87.0132 66.5156C87.0132 65.1853 87.0132 63.855 87.0132 62.4844C104.678 62.4844 122.343 62.4844 140.543 62.4844C140.76 61.9855 140.977 61.4866 141.2 60.9727C142.38 59.2355 144.291 58.3043 146.619 57.6028C149.651 57.1874 152.29 57.483 154.957 58.7474Z" fill="black"/>
<path d="M110.679 16.9222C112.793 18.4589 113.919 20.2841 114.045 22.5183C113.943 24.8419 112.825 26.2221 110.806 27.9255C109.818 28.5952 108.738 29.2266 107.374 29.2266C107.377 29.3664 107.38 29.5062 107.383 29.6502C107.412 31.1052 107.432 32.5602 107.447 34.0153C107.453 34.5583 107.462 35.1014 107.473 35.6444C107.489 36.4249 107.497 37.2053 107.503 37.9859C107.513 38.3501 107.513 38.3501 107.523 38.7216C107.523 38.9486 107.523 39.1755 107.523 39.4093C107.526 39.6084 107.529 39.8076 107.532 40.0128C107.306 40.8017 106.897 41.093 106.061 41.5723C105.18 41.6935 105.18 41.6935 104.163 41.6867C103.591 41.6866 103.591 41.6866 103.008 41.6865C102.598 41.6812 102.188 41.676 101.766 41.6707C101.345 41.6693 100.924 41.6678 100.49 41.6664C99.3737 41.6625 98.2573 41.6526 97.1408 41.6415C96.0005 41.6311 94.8602 41.6266 93.7198 41.6215C91.4842 41.6107 89.2487 41.593 87.0132 41.5723C87.0132 40.1588 87.0132 38.7454 87.0132 37.2891C91.89 37.2891 96.7668 37.2891 101.791 37.2891C101.791 35.9847 101.791 34.6804 101.791 33.3366C101.798 32.9271 101.805 32.5177 101.812 32.0958C101.872 30.287 101.872 30.287 100.9 28.7218C100.226 28.4078 99.5692 28.1855 98.8358 27.9668C96.8038 26.6093 95.7891 25.106 95.4491 23.0685C95.3175 21.0528 96.137 19.2855 97.7274 17.684C101.09 14.9145 106.791 14.6743 110.679 16.9222Z" fill="black"/>
</svg>
