<svg width="169" height="129" viewBox="0 0 169 129" fill="none" xmlns="http://www.w3.org/2000/svg">
<path d="M77.1196 12.015C77.3932 12.0136 77.6668 12.0122 77.9488 12.0107C80.3153 12.0325 80.3153 12.0325 81.4299 12.5977C82.2704 13.5242 82.175 14.5091 82.1613 15.5933C82.1614 15.7925 82.1615 15.9917 82.1616 16.197C82.1611 16.8541 82.156 17.5111 82.1509 18.1682C82.1496 18.6243 82.1487 19.0804 82.148 19.5366C82.1455 20.7361 82.1391 21.9356 82.1318 23.1352C82.1251 24.3596 82.1221 25.584 82.1188 26.8084C82.1117 29.2102 82.1005 31.612 82.0867 34.0137C81.8921 34.0482 81.6975 34.0828 81.497 34.1184C80.6007 34.278 79.7049 34.4391 78.8091 34.6003C78.503 34.6546 78.197 34.7088 77.8816 34.7648C67.6709 36.6088 58.7875 41.2616 53.187 48.1231C50.9702 50.9201 49.4206 53.7964 48.2609 56.9414C48.1491 57.2253 48.0374 57.5092 47.9222 57.8016C45.3933 65.4727 47.7342 73.7349 52.8494 80.4508C58.2933 87.3238 67.3286 92.3233 77.489 94.2305C78.2842 94.3644 79.08 94.496 79.8762 94.6258C80.2902 94.6935 80.7042 94.7611 81.1307 94.8308C81.4462 94.8821 81.7617 94.9335 82.0867 94.9864C82.1019 97.6299 82.1136 100.273 82.1207 102.917C82.1242 104.144 82.1288 105.372 82.1363 106.599C82.1434 107.784 82.1473 108.968 82.149 110.152C82.1502 110.604 82.1526 111.056 82.1562 111.508C82.1609 112.141 82.1616 112.774 82.1613 113.407C82.1636 113.594 82.166 113.781 82.1684 113.974C82.1636 114.902 82.1402 115.629 81.4299 116.402C80.0188 117.042 78.5272 116.994 76.9348 116.985C76.6716 116.984 76.4084 116.983 76.1372 116.982C72.7721 116.933 70.3144 116.314 67.7805 114.56C66.0142 113.066 65.0863 111.844 64.4965 109.899C64.4301 109.693 64.3638 109.487 64.2955 109.275C64.0893 108.629 63.8916 107.981 63.696 107.332C63.6301 107.117 63.5643 106.902 63.4965 106.68C62.3824 103.022 62.3824 103.022 62.3824 102.041C61.9521 102.002 61.9521 102.002 61.5131 101.962C60.3635 101.782 59.5828 101.471 58.5569 101.044C57.3614 100.651 56.7646 100.468 55.4983 100.733C54.4926 101.148 53.5813 101.609 52.6533 102.12C52.3384 102.281 52.0234 102.442 51.6989 102.608C51.0721 102.929 50.4484 103.254 49.8282 103.582C46.2626 105.44 43.2642 106.562 38.8757 105.955C35.2887 105.242 32.8724 103.188 30.3012 101.238C29.9979 101.016 29.6946 100.793 29.382 100.564C27.1404 98.8643 25.3561 97.1065 25.0659 94.6232C25.0647 94.277 25.0718 93.9308 25.0878 93.5849C25.0842 93.4142 25.0806 93.2435 25.0769 93.0677C25.1259 90.4024 27.0558 88.2452 28.9055 86.0893C29.3131 85.6074 29.7206 85.1255 30.128 84.6435C30.3071 84.4339 30.4862 84.2243 30.6707 84.0084C31.772 82.8921 31.772 82.8921 32.0843 81.6063C31.9904 81.4332 31.8964 81.2601 31.7996 81.0817C31.7018 80.8888 31.604 80.6959 31.5032 80.4971C31.3978 80.2899 31.2924 80.0827 31.1838 79.8692C30.9935 79.4033 30.8086 78.9361 30.6296 78.4677C30.5471 78.2543 30.4645 78.0409 30.3795 77.8211C30.3198 77.6655 30.2601 77.5099 30.1986 77.3496C29.6137 77.3121 29.6137 77.3121 29.0171 77.2739C26.8074 77.0839 24.6628 76.6865 22.5016 76.2946C22.0882 76.2243 21.6748 76.154 21.2489 76.0815C17.9202 75.478 14.9498 74.6907 12.9573 72.4366C12.6474 72.0975 12.6474 72.0975 12.3312 71.7516C11.2192 70.2627 11.0467 68.9421 11.0407 67.2666C11.0385 67.0504 11.0363 66.8342 11.0341 66.6115C11.0308 66.1556 11.0292 65.6997 11.0293 65.2438C11.0279 64.552 11.016 63.8606 11.0035 63.1689C11.0016 62.7239 11.0003 62.2789 10.9997 61.8339C10.9949 61.6299 10.9902 61.4259 10.9854 61.2157C11.0093 58.8869 12.3663 56.8549 14.4351 55.1778C16.8706 53.7326 19.5406 53.2091 22.5016 52.7055C22.9162 52.6303 23.3309 52.5551 23.7581 52.4776C25.904 52.0968 28.0034 51.7912 30.1986 51.6504C30.2583 51.4949 30.318 51.3393 30.3795 51.179C30.462 50.9656 30.5446 50.7522 30.6296 50.5324C30.7096 50.3248 30.7896 50.1173 30.8721 49.9035C31.1838 49.1309 31.1838 49.1309 31.5133 48.6397C32.0724 47.7143 32.3056 47.1539 31.8436 46.1709C31.2858 45.4018 30.6795 44.6778 30.0344 43.9501C29.8244 43.7008 29.6144 43.4516 29.3981 43.1947C28.7965 42.4821 28.1853 41.7748 27.5713 41.0684C25.981 39.2292 25.1512 37.7474 25.1083 35.4939C25.0947 35.3218 25.0812 35.1497 25.0672 34.9723C25.0197 32.4934 26.8182 30.457 28.9722 28.7158C29.4553 28.3391 29.9441 27.9678 30.4383 27.5997C30.9389 27.2257 31.429 26.8448 31.9189 26.4625C34.6145 24.3957 37.3318 22.9246 41.2617 22.8648C41.5136 22.8583 41.7655 22.8518 42.025 22.8451C45.1145 23.1054 47.5034 24.1519 50.0877 25.4158C51.0415 25.8747 51.996 26.3324 52.9542 26.7859C53.526 27.0591 54.0924 27.3392 54.6513 27.6277C56.2242 28.3999 56.2242 28.3999 58.0592 28.2631C58.4427 28.1082 58.8263 27.9532 59.2214 27.7936C61.3426 26.959 61.3426 26.959 62.3824 26.959C62.4188 26.778 62.4553 26.597 62.4928 26.4106C62.8922 24.4945 63.3976 22.6105 63.9833 20.7232C64.0633 20.4533 64.1434 20.1834 64.2258 19.9053C65.1159 17.0288 66.4309 14.8034 69.7869 13.1921C72.1816 12.174 74.4231 12.0287 77.1196 12.015Z" fill="white" fill-opacity="0.3"/>
<path d="M82.0866 37.793C82.0866 55.4196 82.0866 73.0462 82.0866 91.207C77.4268 90.6112 77.4268 90.6112 75.2517 90.0417C75.0021 89.9767 74.7526 89.9118 74.4955 89.8448C70.5737 88.7814 67.1533 87.2743 64.0243 85.1602C63.6211 84.9049 63.6211 84.9049 63.2097 84.6444C56.4655 80.2484 52.6832 73.7099 51.8733 67.0195C51.1993 59.1189 54.1632 51.9956 60.966 45.9657C66.0492 41.7861 74.406 37.793 82.0866 37.793Z" fill="white" fill-opacity="0.3"/>
<path d="M134.602 26.5821C136.663 28.029 137.732 29.797 137.926 31.9341C137.888 34.0157 136.931 35.7224 135.068 37.2291C133.882 38.0603 132.887 38.4219 131.347 38.8008C131.35 38.988 131.353 39.1751 131.356 39.3679C131.383 41.1325 131.403 42.8971 131.416 44.6617C131.422 45.5689 131.432 46.4761 131.447 47.3832C131.461 48.2589 131.469 49.1344 131.472 50.0101C131.476 50.5064 131.486 51.0027 131.496 51.499C131.496 51.8016 131.497 52.1041 131.497 52.4159C131.5 52.6822 131.502 52.9485 131.505 53.2229C131.308 54.0925 130.917 54.3796 130.034 54.9258C129.2 55.2457 128.623 55.2088 127.69 55.2081C127.154 55.2086 127.154 55.2086 126.607 55.2091C126.213 55.2082 125.819 55.2073 125.414 55.2064C125 55.2064 124.587 55.2065 124.161 55.2065C123.026 55.2066 121.891 55.2051 120.756 55.2033C119.57 55.2018 118.385 55.2016 117.199 55.2013C114.953 55.2005 112.707 55.1984 110.461 55.1959C107.905 55.1931 105.348 55.1917 102.792 55.1905C97.5321 55.1878 92.2724 55.1833 87.0127 55.1778C87.0127 53.7643 87.0127 52.3509 87.0127 50.8946C99.8008 50.8946 112.589 50.8946 125.765 50.8946C125.656 46.9036 125.548 42.9127 125.436 38.8008C124.569 38.4682 123.702 38.1357 122.809 37.793C120.761 36.4694 119.691 34.9614 119.411 32.939C119.284 30.6349 119.735 28.9282 121.78 27.1952C125.448 24.5673 130.586 24.1562 134.602 26.5821Z" fill="white" fill-opacity="0.3"/>
<path d="M87.0127 73.8222C92.5136 73.8106 98.0146 73.8016 103.516 73.7961C106.07 73.7935 108.624 73.79 111.178 73.7842C113.404 73.7792 115.63 73.7759 117.856 73.7748C119.035 73.7741 120.214 73.7726 121.392 73.7689C122.708 73.7649 124.023 73.7648 125.339 73.765C125.73 73.7632 126.122 73.7614 126.525 73.7595C126.883 73.7602 127.242 73.7609 127.611 73.7616C127.922 73.7612 128.233 73.7607 128.554 73.7602C129.436 73.8267 129.952 73.9545 130.691 74.3261C131.45 75.1996 131.428 75.5263 131.422 76.5555C131.422 77.0094 131.422 77.0094 131.422 77.4725C131.419 77.7992 131.415 78.126 131.412 78.4627C131.41 78.8005 131.409 79.1384 131.409 79.4762C131.406 80.3647 131.4 81.2532 131.393 82.1416C131.386 83.0485 131.383 83.9555 131.38 84.8624C131.373 86.6413 131.361 88.4202 131.348 90.1992C131.811 90.3112 131.811 90.3112 132.283 90.4255C134.357 90.9818 136.085 92.2566 137.115 93.7423C138.094 95.7528 138.08 98.193 136.93 100.151C135.772 101.66 133.936 103.083 131.753 103.693C128.916 104.123 126.042 104.094 123.516 102.952C121.722 101.918 119.976 100.501 119.525 98.7656C119.238 96.1677 119.412 94.2032 121.557 92.1518C122.735 91.087 123.603 90.9023 125.436 90.1992C125.545 86.2082 125.653 82.2173 125.765 78.1054C112.976 78.1054 100.188 78.1054 87.0127 78.1054C87.0127 76.692 87.0127 75.2785 87.0127 73.8222Z" fill="white" fill-opacity="0.3"/>
<path d="M154.957 58.7474C156.715 59.7997 157.686 61.1148 158.277 62.7363C158.534 64.8412 158.624 66.7735 156.963 68.5313C156.733 68.7963 156.503 69.0613 156.265 69.3344C154.767 70.6451 152.301 71.4085 150.076 71.6147C147.563 71.6832 145.395 71.0964 143.232 70.1375C142.14 69.2278 140.543 67.8005 140.543 66.5156C122.878 66.5156 105.213 66.5156 87.0127 66.5156C87.0127 65.1853 87.0127 63.855 87.0127 62.4844C104.678 62.4844 122.343 62.4844 140.543 62.4844C140.76 61.9855 140.976 61.4866 141.2 60.9727C142.379 59.2355 144.291 58.3043 146.618 57.6028C149.65 57.1874 152.289 57.483 154.957 58.7474Z" fill="white" fill-opacity="0.3"/>
<path d="M110.678 16.9222C112.792 18.459 113.919 20.2841 114.045 22.5183C113.942 24.8419 112.825 26.2221 110.805 27.9255C109.817 28.5952 108.737 29.2266 107.374 29.2266C107.377 29.3664 107.38 29.5062 107.383 29.6502C107.412 31.1052 107.432 32.5602 107.446 34.0153C107.453 34.5583 107.462 35.1014 107.473 35.6444C107.489 36.4249 107.496 37.2053 107.502 37.9859C107.512 38.3501 107.512 38.3501 107.523 38.7216C107.523 38.9486 107.523 39.1755 107.523 39.4093C107.526 39.6085 107.529 39.8076 107.532 40.0128C107.306 40.8017 106.897 41.093 106.06 41.5723C105.179 41.6935 105.179 41.6935 104.163 41.6867C103.591 41.6866 103.591 41.6866 103.007 41.6865C102.597 41.6813 102.188 41.6761 101.765 41.6707C101.344 41.6693 100.923 41.6679 100.49 41.6664C99.3732 41.6625 98.2568 41.6527 97.1403 41.6415C96 41.6312 94.8597 41.6266 93.7194 41.6215C91.4837 41.6107 89.2482 41.593 87.0127 41.5723C87.0127 40.1588 87.0127 38.7454 87.0127 37.2891C91.8895 37.2891 96.7664 37.2891 101.791 37.2891C101.791 35.9848 101.791 34.6804 101.791 33.3366C101.798 32.9271 101.805 32.5177 101.811 32.0958C101.872 30.287 101.872 30.287 100.9 28.7218C100.226 28.4078 99.5687 28.1855 98.8353 27.9668C96.8033 26.6093 95.7886 25.106 95.4486 23.0685C95.3171 21.0528 96.1365 19.2855 97.7269 17.684C101.089 14.9145 106.791 14.6744 110.678 16.9222Z" fill="white" fill-opacity="0.3"/>
<path d="M87.0127 87.4278C89.4735 87.4051 91.9342 87.3866 94.3951 87.3756C95.5379 87.3704 96.6805 87.3632 97.8232 87.3518C99.1372 87.3387 100.451 87.3339 101.765 87.3294C102.175 87.3242 102.585 87.319 103.007 87.3137C103.389 87.3136 103.77 87.3135 104.163 87.3134C104.666 87.3101 104.666 87.3101 105.179 87.3066C106.313 87.4626 106.695 87.7304 107.374 88.4356C107.532 88.9873 107.532 88.9873 107.523 89.5908C107.523 89.8178 107.523 90.0447 107.523 90.2785C107.516 90.5213 107.509 90.7641 107.502 91.0142C107.5 91.2645 107.498 91.5147 107.497 91.7725C107.489 92.571 107.473 93.3692 107.456 94.1676C107.449 94.7092 107.443 95.2508 107.438 95.7925C107.424 97.1196 107.402 98.4465 107.374 99.7735C107.684 99.8488 107.994 99.9241 108.314 100.002C110.508 100.589 112.194 102.007 113.285 103.553C114.356 105.729 114.158 107.572 113.039 109.706C111.811 111.649 109.998 112.643 107.374 113.379C104.985 113.857 102.563 113.65 100.339 112.836C98.0901 111.794 96.8551 110.408 95.7565 108.608C95.181 106.444 95.5 104.505 96.8649 102.545C98.2197 101.205 99.4636 100.54 101.463 99.7735C101.571 97.1129 101.679 94.4523 101.791 91.711C96.9141 91.711 92.0373 91.711 87.0127 91.711C87.0127 90.2976 87.0127 88.8841 87.0127 87.4278Z" fill="white" fill-opacity="0.3"/>
</svg>
