<svg width="169" height="129" viewBox="0 0 169 129" fill="none" xmlns="http://www.w3.org/2000/svg">
<g clip-path="url(#clip0_4189_3706)">
<path d="M164.592 0.703731C166.772 2.32483 166.772 2.32483 166.976 3.804C167.078 6.39125 166.256 8.71114 165.434 11.1629C165.275 11.6481 165.116 12.1334 164.958 12.6189C164.524 13.9471 164.084 15.2739 163.643 16.6004C163.168 18.0337 162.699 19.4683 162.228 20.9028C161.413 23.3873 160.595 25.8709 159.775 28.3539C158.477 32.2799 157.186 36.2075 155.896 40.1354C155.566 41.1422 155.235 42.1489 154.904 43.1557C154.682 43.8336 154.459 44.5116 154.236 45.1895C153.557 47.2581 152.877 49.3266 152.197 51.395C148.943 61.2871 145.713 71.185 142.502 81.0879C142.166 82.1248 141.829 83.1617 141.493 84.1986C139.551 90.1861 137.61 96.1738 135.672 102.162C134.767 104.959 133.86 107.755 132.953 110.551C132.401 112.25 131.851 113.95 131.302 115.651C130.968 116.684 130.632 117.718 130.296 118.751C130.143 119.222 129.99 119.695 129.838 120.167C127.598 127.127 127.598 127.127 125.523 128.573C123.799 129.077 121.9 129.179 120.186 128.593C119.416 128.206 118.695 127.786 117.97 127.338C117.695 127.177 117.42 127.015 117.137 126.849C116.235 126.318 115.341 125.777 114.448 125.235C113.814 124.859 113.179 124.483 112.545 124.108C111.226 123.328 109.911 122.544 108.599 121.756C106.711 120.624 104.815 119.502 102.917 118.383C100.571 117.001 98.2274 115.615 95.8864 114.227C92.886 112.448 89.8763 110.681 86.861 108.921C86.6507 108.799 86.4405 108.676 86.224 108.549C85.0997 107.893 83.9752 107.238 82.8502 106.583C81.2584 107.744 79.7676 108.963 78.3139 110.256C78.1012 110.443 77.8885 110.631 77.6693 110.825C77.2113 111.229 76.7537 111.634 76.2963 112.039C75.5713 112.681 74.845 113.322 74.1183 113.962C72.0534 115.782 69.9899 117.603 67.9298 119.427C66.6662 120.546 65.4003 121.662 64.1328 122.777C63.6519 123.201 63.1719 123.626 62.6928 124.051C62.0225 124.646 61.3493 125.239 60.6752 125.831C60.4799 126.006 60.2845 126.18 60.0833 126.361C58.6932 127.573 57.2465 128.68 55.261 129C52.5102 128.942 52.5102 128.942 51.2528 128.002C48.5163 125.301 48.0413 120.789 47.1122 117.344C46.9664 116.806 46.8205 116.268 46.6746 115.729C46.4445 114.882 46.2146 114.033 45.9853 113.185C45.5047 111.411 45.0158 109.638 44.52 107.867C41.4667 96.9548 41.4667 96.9548 40.6011 91.9858C39.2281 83.2262 39.2281 83.2262 33.0874 76.6064C30.6911 75.1577 28.1412 73.9579 25.5441 72.8117C22.1478 71.3077 19.0672 69.4604 15.9494 67.5569C14.5461 66.7029 13.1291 65.867 11.7127 65.0298C11.321 64.7969 11.321 64.7969 10.9214 64.5594C9.59742 63.7726 8.26879 62.9931 6.93116 62.2243C6.53144 61.9938 6.53144 61.9938 6.12365 61.7586C5.62177 61.4697 5.11887 61.1821 4.61474 60.8962C1.35236 59.0157 1.35236 59.0157 0.762016 57.463C0.602563 56.0032 0.573884 54.7265 1.20992 53.3578C3.4523 51.3919 6.91895 50.6122 9.83839 49.6776C10.2829 49.5338 10.7274 49.3899 11.1718 49.2458C12.1229 48.9378 13.0744 48.6307 14.0262 48.3244C16.3402 47.5795 18.652 46.8293 20.9641 46.0796C21.7662 45.8195 22.5683 45.5596 23.3705 45.2998C28.4656 43.6483 33.5499 41.9719 38.6317 40.2891C40.4969 39.6715 42.3624 39.0544 44.2278 38.4373C44.6975 38.2819 45.1672 38.1265 45.6369 37.9711C51.1773 36.1379 56.7219 34.3146 62.2671 32.4925C62.7574 32.3314 63.2477 32.1702 63.738 32.0091C65.7028 31.3635 67.6676 30.7179 69.6324 30.0724C73.0625 28.9455 76.4925 27.8182 79.9223 26.6905C80.164 26.611 80.4058 26.5315 80.6549 26.4496C81.8756 26.0483 83.0963 25.6469 84.317 25.2456C86.5155 24.5228 88.7139 23.8 90.9124 23.0773C92.1339 22.6757 93.3555 22.274 94.5771 21.8724C95.0657 21.7118 95.5543 21.5512 96.0429 21.3905C96.2848 21.311 96.5267 21.2315 96.7759 21.1496C105.345 18.3323 113.915 15.5149 122.484 12.6976C122.737 12.6144 122.99 12.5312 123.251 12.4455C123.764 12.2769 124.277 12.1082 124.79 11.9396C126.071 11.5183 127.353 11.097 128.634 10.6756C130.888 9.93441 133.142 9.19344 135.397 8.45428C136.596 8.06118 137.795 7.66782 138.994 7.27433C139.343 7.16011 139.343 7.16011 139.698 7.04357C142.499 6.12371 145.296 5.19431 148.087 4.24991C149.548 3.75569 151.01 3.26479 152.472 2.77399C153.441 2.44705 154.406 2.1146 155.372 1.78184C161.719 -0.368292 161.719 -0.368292 164.592 0.703731ZM119.334 35.4732C119.025 35.6676 118.716 35.862 118.397 36.0623C115.238 38.0381 112.034 39.9465 108.793 41.8174C107.235 42.72 105.699 43.6382 104.194 44.6074C102.014 46.0112 99.7554 47.3065 97.4961 48.61C95.9012 49.5349 94.3268 50.4732 92.7855 51.4658C90.6076 52.8683 88.3517 54.1619 86.0949 55.4639C84.5001 56.3889 82.9256 57.3272 81.3843 58.3197C79.2065 59.7223 76.9506 61.0158 74.6938 62.3179C73.0989 63.2428 71.5245 64.1811 69.9832 65.1737C67.8054 66.5762 65.5494 67.8698 63.2927 69.1718C61.7003 70.0953 60.1283 71.032 58.5897 72.0232C56.6883 73.2478 54.7297 74.3889 52.7593 75.526C52.0777 75.9195 51.3965 76.3137 50.7158 76.7085C50.2715 76.9649 50.2715 76.9649 49.8182 77.2264C48.9602 77.7467 48.1505 78.3021 47.3438 78.8816C47.8385 81.9048 48.647 84.8522 49.4612 87.8183C49.6048 88.3441 49.7483 88.87 49.8919 89.3958C50.191 90.4903 50.4912 91.5845 50.7921 92.6785C51.1783 94.0832 51.5607 95.4887 51.9422 96.8944C52.2365 97.9768 52.5333 99.0588 52.8308 100.141C52.973 100.659 53.1143 101.178 53.2547 101.697C53.4501 102.418 53.6489 103.138 53.8486 103.858C53.9061 104.073 53.9637 104.288 54.023 104.51C54.165 105.015 54.3349 105.515 54.5102 106.012C54.7252 106.106 54.9402 106.2 55.1617 106.297C55.2241 106.095 55.2865 105.893 55.3508 105.684C55.9421 103.768 56.536 101.852 57.1329 99.9369C57.4396 98.9525 57.7453 97.968 58.0486 96.9828C58.3419 96.0305 58.6379 95.0788 58.9357 94.1275C59.1028 93.5914 59.2671 93.0547 59.4314 92.5179C59.5356 92.1865 59.6399 91.855 59.7473 91.5135C59.837 91.2244 59.9267 90.9352 60.0191 90.6373C60.841 88.5427 61.9252 87.0626 63.7321 85.5219C63.9351 85.3442 64.1381 85.1665 64.3473 84.9834C65.0137 84.4014 65.6845 83.8236 66.3554 83.2456C66.8232 82.8385 67.2905 82.431 67.7576 82.0233C68.9851 80.9531 70.2163 79.8863 71.4485 78.8203C73.4178 77.1154 75.3811 75.405 77.345 73.6953C78.028 73.1015 78.7124 72.509 79.397 71.9167C81.1569 70.3912 82.896 68.8776 84.4974 67.2218C85.9981 65.7514 87.6273 64.3826 89.2231 62.9921C89.9171 62.3874 90.61 61.7818 91.3026 61.1759C93.0223 59.6721 94.7437 58.1698 96.465 56.6675C97.9231 55.395 99.3804 54.1218 100.837 52.8478C101.516 52.2544 102.196 51.6618 102.876 51.0693C104.665 49.5066 106.441 47.9536 108.076 46.2644C109.093 45.2429 110.204 44.2995 111.301 43.3446C111.551 43.126 111.801 42.9073 112.058 42.6821C112.847 41.9919 113.637 41.3028 114.427 40.6137C114.966 40.1426 115.505 39.6715 116.044 39.2003C117.357 38.0524 118.671 36.9053 119.985 35.7588C119.663 35.6175 119.663 35.6175 119.334 35.4732Z" fill="#020202"/>
</g>
<defs>
<clipPath id="clip0_4189_3706">
<rect width="168.144" height="129" fill="white" transform="translate(0.856445)"/>
</clipPath>
</defs>
</svg>
