<svg width="67" height="57" viewBox="0 0 67 57" fill="none" xmlns="http://www.w3.org/2000/svg">
<path d="M40.5798 51.5042C40.6858 51.7291 40.8702 51.921 41.1082 52.0541C41.3461 52.1873 41.6262 52.2553 41.911 52.2491C42.1957 52.2429 42.4713 52.1627 42.701 52.0194C42.9306 51.8761 43.1032 51.6764 43.1956 51.4472L61.3414 6.3222C61.4307 6.11176 61.4478 5.88403 61.3906 5.66564C61.3333 5.44726 61.2042 5.24726 61.0182 5.08905C60.8322 4.93083 60.5971 4.82095 60.3404 4.77226C60.0837 4.72356 59.8161 4.73807 59.5687 4.81408L6.52702 20.2516C6.25762 20.3302 6.02292 20.477 5.85443 20.6724C5.68595 20.8677 5.59173 21.1022 5.58444 21.3445C5.57715 21.5867 5.65713 21.825 5.81364 22.0274C5.97015 22.2299 6.1957 22.3867 6.46002 22.4769L28.5979 30.0295C29.2978 30.2678 29.9336 30.6243 30.4671 31.0774C31.0007 31.5304 31.4208 32.0707 31.7023 32.6657L40.5798 51.5042Z" stroke="#A28513" stroke-width="2" stroke-linecap="round" stroke-linejoin="round"/>
<path d="M61.0091 5.09912L30.4683 31.0792" stroke="#A28513" stroke-width="2" stroke-linecap="round" stroke-linejoin="round"/>
</svg>
