<svg width="71" height="61" viewBox="0 0 71 61" fill="none" xmlns="http://www.w3.org/2000/svg">
<path d="M35.5 53.375V17.7916" stroke="#A28513" stroke-width="2" stroke-linecap="round" stroke-linejoin="round"/>
<path d="M47.3333 30.5L53.2499 35.5833L65.0833 25.4166" stroke="#A28513" stroke-width="2" stroke-linecap="round" stroke-linejoin="round"/>
<path d="M65.0834 15.25V10.1667C65.0834 9.49257 64.7717 8.84609 64.2169 8.36944C63.6621 7.89278 62.9097 7.625 62.1251 7.625H47.3334C44.195 7.625 41.1852 8.69613 38.966 10.6027C36.7468 12.5094 35.5001 15.0953 35.5001 17.7917C35.5001 15.0953 34.2534 12.5094 32.0342 10.6027C29.815 8.69613 26.8051 7.625 23.6667 7.625H8.87508C8.09048 7.625 7.33802 7.89278 6.78322 8.36944C6.22843 8.84609 5.91675 9.49257 5.91675 10.1667V43.2083C5.91675 43.8824 6.22843 44.5289 6.78322 45.0056C7.33802 45.4822 8.09048 45.75 8.87508 45.75H26.6251C28.9789 45.75 31.2363 46.5533 32.9007 47.9833C34.565 49.4133 35.5001 51.3527 35.5001 53.375C35.5001 51.3527 36.4351 49.4133 38.0995 47.9833C39.7639 46.5533 42.0213 45.75 44.3751 45.75H62.1251C62.9097 45.75 63.6621 45.4822 64.2169 45.0056C64.7717 44.5289 65.0834 43.8824 65.0834 43.2083V39.9042" stroke="#A28513" stroke-width="2" stroke-linecap="round" stroke-linejoin="round"/>
</svg>
