<svg width="26" height="16" viewBox="0 0 26 16" fill="none" xmlns="http://www.w3.org/2000/svg">
<path fill-rule="evenodd" clip-rule="evenodd" d="M0 7.52246C0 3.36792 3.36791 0 7.52245 0H18.2993C22.4538 0 25.8218 3.36792 25.8218 7.52246C25.8218 11.677 22.4538 15.0449 18.2993 15.0449H7.52246C3.36792 15.0449 0 11.677 0 7.52246ZM3.11122 1.67166C2.68939 1.67166 2.34743 2.01362 2.34743 2.43545C2.34743 2.72508 2.51126 2.9898 2.77047 3.11902L8.19822 5.82467C11.1659 7.30399 14.6559 7.30399 17.6235 5.82467L23.0513 3.11902C23.3105 2.9898 23.4743 2.72508 23.4743 2.43545C23.4743 2.01362 23.1324 1.67166 22.7105 1.67166H3.11122ZM23.4743 10.1526C23.4743 7.76021 20.9581 6.20297 18.8169 7.27031L15.4014 8.9729C13.8331 9.75468 11.9887 9.75467 10.4204 8.9729L7.00485 7.27031C4.86369 6.20297 2.34743 7.76021 2.34743 10.1526C2.34743 11.9313 3.78935 13.3733 5.56804 13.3733H20.2537C22.0324 13.3733 23.4743 11.9313 23.4743 10.1526Z" fill="#7C0000"/>
</svg>
