<svg width="29" height="26" viewBox="0 0 29 26" fill="none" xmlns="http://www.w3.org/2000/svg">
<path d="M20.5879 11.3653C20.5879 10.6912 20.0415 10.1448 19.3674 10.1448H19.2237C18.5496 10.1448 18.0032 10.6912 18.0032 11.3653C18.0032 12.0393 18.5496 12.5858 19.2237 12.5858H19.3674C20.0415 12.5858 20.5879 12.0393 20.5879 11.3653Z" fill="#7C0000"/>
<path d="M15.4441 11.3653C15.4441 10.6912 14.8977 10.1448 14.2237 10.1448H14.0799C13.4058 10.1448 12.8594 10.6912 12.8594 11.3653C12.8594 12.0393 13.4058 12.5858 14.0799 12.5858H14.2237C14.8977 12.5858 15.4441 12.0393 15.4441 11.3653Z" fill="#7C0000"/>
<path d="M10.3004 11.3653C10.3004 10.6912 9.75395 10.1448 9.0799 10.1448H8.93613C8.26207 10.1448 7.71564 10.6912 7.71564 11.3653C7.71564 12.0393 8.26207 12.5858 8.93613 12.5858H9.0799C9.75395 12.5858 10.3004 12.0393 10.3004 11.3653Z" fill="#7C0000"/>
<path fill-rule="evenodd" clip-rule="evenodd" d="M28.2907 11.3653C28.2907 5.29879 23.3728 0.38092 17.3063 0.38092H10.9844C4.91787 0.38092 0 5.29879 0 11.3653V19.1348C0 20.9103 1.43934 22.3497 3.21485 22.3497H4.96637C5.77455 22.3497 6.4297 23.0048 6.4297 23.813C6.4297 24.9472 7.66415 25.6502 8.6396 25.0716L12.3097 22.8945C12.9109 22.5379 13.5971 22.3497 14.2961 22.3497H17.3063C23.3728 22.3497 28.2907 17.4318 28.2907 11.3653ZM17.1754 2.82189C21.8938 2.82189 25.7188 6.6469 25.7188 11.3653C25.7188 16.0837 21.8938 19.9087 17.1754 19.9087H13.0387C12.6799 19.9087 12.3278 20.0053 12.0192 20.1883L10.1357 21.3056C9.63511 21.6025 9.00158 21.2417 9.00158 20.6597C9.00158 20.2449 8.66535 19.9087 8.25059 19.9087H5.78673C4.01122 19.9087 2.57188 18.4694 2.57188 16.6938V11.3653C2.57188 6.6469 6.39689 2.82189 11.1153 2.82189H17.1754Z" fill="#7C0000"/>
</svg>
