<svg width="22" height="22" viewBox="0 0 22 22" fill="none" xmlns="http://www.w3.org/2000/svg">
<path fill-rule="evenodd" clip-rule="evenodd" d="M0.202393 3.72289C0.202393 1.66679 1.86919 0 3.92528 0C5.69186 0 7.2152 1.24153 7.57161 2.97179L7.85865 4.36529C8.07972 5.43847 7.73763 6.55025 6.9515 7.31353C6.09937 8.14089 5.73814 9.39188 6.27655 10.4505C7.34447 12.5503 9.10919 14.2571 11.2769 15.2856C12.3563 15.7977 13.6087 15.4449 14.4659 14.6126C15.2576 13.8439 16.3753 13.5111 17.4585 13.7214L19.0896 14.0382C20.7797 14.3663 22 15.8464 22 17.5681C22 19.554 20.3901 21.164 18.4041 21.164H16.0552C7.29994 21.164 0.202393 14.2727 0.202393 5.77199V3.72289ZM3.92004 1.924C2.96125 1.924 2.18399 2.70125 2.18399 3.66004V5.77199C2.18399 13.2101 8.39434 19.24 16.0552 19.24H18.3416C19.2677 19.24 20.0184 18.4892 20.0184 17.5631C20.0184 16.7603 19.4493 16.0701 18.6612 15.9171L17.7913 15.7481C16.9076 15.5765 15.9959 15.8481 15.35 16.4751L14.0898 17.6987C13.8445 17.9368 13.4959 18.0354 13.1624 17.9611C8.37068 16.8931 4.60115 13.2331 3.50116 8.58073C3.42505 8.25887 3.52376 7.92069 3.76106 7.69029L5.02178 6.46621C5.67001 5.83683 5.95209 4.92008 5.7698 4.03515L5.62039 3.30979C5.45419 2.50294 4.74383 1.924 3.92004 1.924Z" fill="#8D0000"/>
</svg>
