<svg width="27" height="24" viewBox="0 0 27 24" fill="none" xmlns="http://www.w3.org/2000/svg">
<path fill-rule="evenodd" clip-rule="evenodd" d="M8.1848 6.59512C8.1848 3.97438 10.5495 1.84985 13.4665 1.84985C16.3835 1.84985 18.7482 3.97438 18.7482 6.59512C18.7482 9.21586 16.3835 11.3404 13.4665 11.3404C10.5495 11.3404 8.1848 9.21586 8.1848 6.59512ZM13.4665 3.74796C11.7163 3.74796 10.2975 5.02268 10.2975 6.59512C10.2975 8.16756 11.7163 9.44228 13.4665 9.44228C15.2167 9.44228 16.6356 8.16756 16.6356 6.59512C16.6356 5.02268 15.2167 3.74796 13.4665 3.74796Z" fill="#7C0000"/>
<path fill-rule="evenodd" clip-rule="evenodd" d="M2.90308 21.78C2.90308 16.5385 7.63249 12.2894 13.4665 12.2894C19.3006 12.2894 24.03 16.5385 24.03 21.78V22.729H2.90308V21.78ZM5.08115 20.8309H21.8519C21.3321 17.0857 17.776 14.1876 13.4665 14.1876C9.15704 14.1876 5.60097 17.0857 5.08115 20.8309Z" fill="#7C0000"/>
</svg>
